<svg version="1.1" id="Layer_1" xmlns="http://www.w3.org/2000/svg" x="0" y="0" viewBox="0 0 150 150" xml:space="preserve"><style>.st0{fill:#432de0}.st1{fill:#27e774}</style><path class="st0" d="M900.7-645.4h15v15h-15z"/><path d="M1276-882.2h-7.1l-1.1 3.6h-4.7l6.9-18.6h5l6.9 18.6h-4.7l-1.2-3.6zm-5.9-3.7h4.8l-2.4-7.9-2.4 7.9zm13.8-12.5h4.5v7.1c.4-.4.9-.7 1.4-1 .6-.3 1.2-.4 2.1-.4.9 0 1.7.2 2.4.5s1.3.8 1.9 1.5c.5.6.9 1.4 1.2 2.2.3.9.4 1.8.4 2.8 0 1-.2 1.9-.5 2.8-.3.9-.8 1.7-1.5 2.3-.7.7-1.5 1.2-2.5 1.6-1 .4-2.1.6-3.5.6-1.1 0-2.2-.1-3.2-.4-1-.2-1.9-.6-2.8-1v-18.6zm6.7 9.2c-.8 0-1.6.3-2.2.8v6.5c.2.1.4.2.7.2.3.1.6.1.9.1.6 0 1.1-.1 1.5-.3.4-.2.8-.5 1-.8.3-.4.5-.8.6-1.2.1-.5.2-1 .2-1.5 0-1.1-.2-2-.7-2.7-.4-.8-1.1-1.1-2-1.1zm18.5-3.1l-.1 3.8h-.5c-1.8 0-3 .4-3.8 1.3v8.5h-4.5v-9.4c0-2.4 1.9-4.3 4.3-4.3h1.3l3.3.1zm1.7 13.7v-13.7h4.5v13.7h-4.5zm20.8 0h-4.3v-1.7c-.4.6-1 1.1-1.7 1.5-.7.4-1.5.5-2.5.5-.8 0-1.5-.2-2.2-.5-.7-.3-1.3-.8-1.8-1.4-.5-.6-.9-1.3-1.2-2.2-.3-.9-.4-1.8-.4-2.9 0-1.2.2-2.2.6-3.2.4-.9.9-1.7 1.5-2.3.6-.6 1.4-1.1 2.3-1.4.9-.3 1.8-.5 2.7-.5.5 0 .9 0 1.3.1s.7.1 1 .2v-6.1h4.5v19.9zm-6.8-3.1c1 0 1.7-.3 2.3-1v-6.3c-.4-.1-.9-.2-1.6-.2-1.1 0-2 .3-2.5 1-.6.7-.8 1.6-.8 2.8 0 1.1.2 1.9.6 2.6s1.1 1.1 2 1.1zm22.9-10.6v2.9h-2c.2.6.3 1.1.3 1.6 0 .6-.1 1.2-.4 1.8s-.6 1.1-1.1 1.5-1.1.8-1.8 1c-.7.2-1.6.4-2.6.4h-.2c-.1.1-.1.3-.2.4 0 .1-.1.3-.1.4 0 .3.1.5.3.6.2.1.4.2.7.2l2.4.1c1.4.1 2.5.5 3.3 1.1s1.2 1.6 1.2 2.8c0 .9-.2 1.6-.7 2.3-.5.6-1.1 1.2-1.8 1.6-.8.4-1.6.7-2.6 1-1 .2-1.9.3-2.9.3-.8 0-1.5-.1-2.3-.2-.7-.1-1.4-.3-2-.6-.6-.3-1-.6-1.4-1.1-.4-.4-.5-1-.5-1.7 0-.4.1-.8.3-1.1s.4-.6.8-.9.7-.4 1.1-.6c.4-.2.8-.3 1.3-.4-.8-.4-1.2-1-1.2-1.9 0-.4.1-.7.2-1 .1-.3.3-.5.5-.7.2-.2.4-.4.7-.6s.5-.3.7-.4c-1.2-.3-2.1-.9-2.7-1.6-.6-.8-.9-1.7-.9-2.7 0-.7.1-1.3.4-1.9s.6-1.1 1.1-1.5c.5-.4 1.1-.8 1.8-1 .7-.2 1.6-.4 2.6-.4.4 0 .8 0 1.2.1.4 0 .7.1 1 .2h5.5zm-8.9 13.7c-.2.2-.5.4-.7.6-.2.2-.4.6-.4 1 0 .5.2.9.7 1.1.4.2 1 .4 1.8.4.4 0 .8 0 1.2-.1.4-.1.8-.2 1.1-.4.3-.2.6-.3.8-.6.2-.2.3-.5.3-.7 0-.3-.1-.6-.4-.7-.2-.1-.6-.2-1.1-.3l-3.3-.3zm1.3-7.4c.7 0 1.1-.2 1.5-.5.3-.3.5-.8.5-1.4 0-.6-.2-1.1-.5-1.4s-.8-.5-1.5-.5-1.1.2-1.5.5-.5.8-.5 1.4c0 .6.2 1.1.5 1.4.4.3.9.5 1.5.5zm15.7-6.6c1.8 0 3.2.5 4.3 1.6 1 1.1 1.6 2.5 1.6 4.4 0 .7-.1 1.5-.3 2.3h-8c0 .8.3 1.5.9 2 .5.5 1.3.8 2.5.8.7 0 1.4-.1 2.1-.2.7-.1 1.4-.3 1.9-.5l.6 2.9c-.7.4-1.5.6-2.4.8-.9.2-1.8.3-2.8.3-1.2 0-2.2-.2-3.2-.5-.9-.3-1.7-.8-2.3-1.4-.6-.6-1.1-1.4-1.4-2.2-.3-.9-.5-1.8-.5-2.9 0-1.1.2-2.1.5-3s.8-1.7 1.4-2.3c.6-.6 1.3-1.1 2.2-1.4.9-.5 1.9-.7 2.9-.7zm-.1 2.8c-.7 0-1.3.2-1.6.7-.4.5-.6 1.1-.6 1.9h4c0-.1.1-.3.1-.5 0-.6-.2-1.1-.5-1.5-.4-.4-.8-.6-1.4-.6zm21.6 11.2h-4.3v-1.7c-.4.6-1 1.1-1.7 1.5-.7.4-1.5.5-2.5.5-.8 0-1.5-.2-2.2-.5-.7-.3-1.3-.8-1.8-1.4-.5-.6-.9-1.3-1.2-2.2-.3-.9-.4-1.8-.4-2.9 0-1.2.2-2.2.6-3.2.4-.9.9-1.7 1.5-2.3.6-.6 1.4-1.1 2.3-1.4.9-.3 1.8-.5 2.7-.5.5 0 .9 0 1.3.1s.7.1 1 .2v-6.1h4.5v19.9zm-6.8-3.1c1 0 1.7-.3 2.3-1v-6.3c-.4-.1-.9-.2-1.6-.2-1.1 0-2 .3-2.5 1-.6.7-.8 1.6-.8 2.8 0 1.1.2 1.9.6 2.6s1.1 1.1 2 1.1zm-93.8 351.4h-7.1l-1.1 3.6h-4.7l6.9-18.6h5l6.9 18.6h-4.7l-1.2-3.6zm-5.9-3.6h4.8l-2.4-7.9-2.4 7.9zm13.1-12.6h4.5v7.1c.4-.4.9-.7 1.4-1 .6-.3 1.2-.4 2.1-.4.9 0 1.7.2 2.4.5s1.3.8 1.9 1.5c.5.6.9 1.4 1.2 2.2.3.9.4 1.8.4 2.8 0 1-.2 1.9-.5 2.8-.3.9-.8 1.7-1.5 2.3-.7.7-1.5 1.2-2.5 1.6-1 .4-2.1.6-3.5.6-1.1 0-2.2-.1-3.2-.4-1-.2-1.9-.6-2.8-1v-18.6zm6.7 9.2c-.8 0-1.6.3-2.2.8v6.5c.2.1.4.2.7.2.3.1.6.1.9.1.6 0 1.1-.1 1.5-.3.4-.2.8-.5 1-.8.3-.4.5-.8.6-1.2.1-.5.2-1 .2-1.5 0-1.1-.2-2-.7-2.7-.4-.7-1.1-1.1-2-1.1zm18.8 10.6v-8.3l4.3-5.1c.1-.1.2 0 .2.1v13.3h-4.5zm20.1 0h-4.3v-1.7c-.4.6-1 1.1-1.7 1.5-.7.4-1.5.5-2.5.5-.8 0-1.5-.2-2.2-.5-.7-.3-1.3-.8-1.8-1.4-.5-.6-.9-1.3-1.2-2.2-.3-.9-.4-1.8-.4-2.9 0-1.2.2-2.2.6-3.2.4-.9.9-1.7 1.5-2.3.6-.6 1.4-1.1 2.3-1.4.9-.3 1.8-.5 2.7-.5.5 0 .9 0 1.3.1s.7.1 1 .2v-6.1h4.5v19.9zm-6.8-3.1c1 0 1.7-.3 2.3-1v-6.3c-.4-.1-.9-.2-1.6-.2-1.1 0-2 .3-2.5 1-.6.7-.8 1.6-.8 2.8 0 1.1.2 1.9.6 2.6s1.1 1.1 2 1.1zm22.2-10.6v2.9h-2c.2.6.3 1.1.3 1.6 0 .6-.1 1.2-.4 1.8s-.6 1.1-1.1 1.5-1.1.8-1.8 1c-.7.2-1.6.4-2.6.4h-.2c-.1.1-.1.3-.2.4 0 .1-.1.3-.1.4 0 .3.1.5.3.6.2.1.4.2.7.2l2.4.1c1.4.1 2.5.5 3.3 1.1s1.2 1.6 1.2 2.8c0 .9-.2 1.6-.7 2.3-.5.6-1.1 1.2-1.8 1.6-.8.4-1.6.7-2.6 1-1 .2-1.9.3-2.9.3-.8 0-1.5-.1-2.3-.2-.7-.1-1.4-.3-2-.6-.6-.3-1-.6-1.4-1.1-.4-.4-.5-1-.5-1.7 0-.4.1-.8.3-1.1s.4-.6.8-.9.7-.4 1.1-.6c.4-.2.8-.3 1.3-.4-.8-.4-1.2-1-1.2-1.9 0-.4.1-.7.2-1 .1-.3.3-.5.5-.7.2-.2.4-.4.7-.6s.5-.3.7-.4c-1.2-.3-2.1-.9-2.7-1.6-.6-.8-.9-1.7-.9-2.7 0-.7.1-1.3.4-1.9s.6-1.1 1.1-1.5c.5-.4 1.1-.8 1.8-1 .7-.2 1.6-.4 2.6-.4.4 0 .8 0 1.2.1.4 0 .7.1 1 .2h5.5zm-8.9 13.8c-.2.2-.5.4-.7.6-.2.2-.4.6-.4 1 0 .5.2.9.7 1.1.4.2 1 .4 1.8.4.4 0 .8 0 1.2-.1.4-.1.8-.2 1.1-.4.3-.2.6-.3.8-.6.2-.2.3-.5.3-.7 0-.3-.1-.6-.4-.7-.2-.1-.6-.2-1.1-.3l-3.3-.3zm1.3-7.5c.7 0 1.1-.2 1.5-.5.3-.3.5-.8.5-1.4 0-.6-.2-1.1-.5-1.4s-.8-.5-1.5-.5-1.1.2-1.5.5-.5.8-.5 1.4c0 .6.2 1.1.5 1.4.4.4.9.5 1.5.5zm15-6.6c1.8 0 3.2.5 4.3 1.6 1 1.1 1.6 2.5 1.6 4.4 0 .7-.1 1.5-.3 2.3h-8c0 .8.3 1.5.9 2 .5.5 1.3.8 2.5.8.7 0 1.4-.1 2.1-.2.7-.1 1.4-.3 1.9-.5l.6 2.9c-.7.4-1.5.6-2.4.8-.9.2-1.8.3-2.8.3-1.2 0-2.2-.2-3.2-.5-.9-.3-1.7-.8-2.3-1.4-.6-.6-1.1-1.4-1.4-2.2-.3-.9-.5-1.8-.5-2.9 0-1.1.2-2.1.5-3s.8-1.7 1.4-2.3c.6-.6 1.3-1.1 2.2-1.4.9-.5 1.9-.7 2.9-.7zm-.1 2.9c-.7 0-1.3.2-1.6.7-.4.5-.6 1.1-.6 1.9h4c0-.1.1-.3.1-.5 0-.6-.2-1.1-.5-1.5-.4-.4-.8-.6-1.4-.6zm20.9 11.1h-4.3v-1.7c-.4.6-1 1.1-1.7 1.5-.7.4-1.5.5-2.5.5-.8 0-1.5-.2-2.2-.5-.7-.3-1.3-.8-1.8-1.4-.5-.6-.9-1.3-1.2-2.2-.3-.9-.4-1.8-.4-2.9 0-1.2.2-2.2.6-3.2.4-.9.9-1.7 1.5-2.3.6-.6 1.4-1.1 2.3-1.4.9-.3 1.8-.5 2.7-.5.5 0 .9 0 1.3.1s.7.1 1 .2v-6.1h4.5v19.9zm-6.8-3.1c1 0 1.7-.3 2.3-1v-6.3c-.4-.1-.9-.2-1.6-.2-1.1 0-2 .3-2.5 1-.6.7-.8 1.6-.8 2.8 0 1.1.2 1.9.6 2.6s1.1 1.1 2 1.1zm-59.4-6.7c-1.9 0-2.1.6-2.8 1.5v8.3h-4.5v-9.4c0-2.4 1.9-4.3 4.3-4.3h6.4l-3.4 3.9zm-34.2 110.4h-7.1l-1.1 3.6h-4.7l6.9-18.6h5l6.9 18.6h-4.7l-1.2-3.6zm-6-3.7h4.8l-2.4-7.9-2.4 7.9zm13.2-12.5h4.5v7.1c.4-.4.9-.7 1.4-1 .6-.3 1.2-.4 2.1-.4.9 0 1.7.2 2.4.5s1.3.8 1.9 1.5c.5.6.9 1.4 1.2 2.2.3.9.4 1.8.4 2.8 0 1-.2 1.9-.5 2.8-.3.9-.8 1.7-1.5 2.3-.7.7-1.5 1.2-2.5 1.6-1 .4-2.1.6-3.5.6-1.1 0-2.2-.1-3.2-.4-1-.2-1.9-.6-2.8-1v-18.6zm6.6 9.2c-.8 0-1.6.3-2.2.8v6.5c.2.1.4.2.7.2.3.1.6.1.9.1.6 0 1.1-.1 1.5-.3.4-.2.8-.5 1-.8.3-.4.5-.8.6-1.2.1-.5.2-1 .2-1.5 0-1.1-.2-2-.7-2.7-.3-.8-1-1.1-2-1.1zm18.9 10.6v-8.3l4.3-5.1c.1-.1.2 0 .2.1v13.3h-4.5zm20.1 0h-4.3v-1.7c-.4.6-1 1.1-1.7 1.5-.7.4-1.5.5-2.5.5-.8 0-1.5-.2-2.2-.5-.7-.3-1.3-.8-1.8-1.4-.5-.6-.9-1.3-1.2-2.2-.3-.9-.4-1.8-.4-2.9 0-1.2.2-2.2.6-3.2.4-.9.9-1.7 1.5-2.3.6-.6 1.4-1.1 2.3-1.4.9-.3 1.8-.5 2.7-.5.5 0 .9 0 1.3.1s.7.1 1 .2v-6.1h4.5v19.9zm-6.8-3.1c1 0 1.7-.3 2.3-1v-6.3c-.4-.1-.9-.2-1.6-.2-1.1 0-2 .3-2.5 1-.6.7-.8 1.6-.8 2.8 0 1.1.2 1.9.6 2.6s1.1 1.1 2 1.1z"/><path d="M1330.1-422.9c-.8-.4-1.2-1-1.2-1.9 0-.4.1-.7.2-1 .1-.3.3-.5.5-.7.2-.2.4-.4.7-.6s.5-.3.7-.4c-1.2-.3-2.1-.9-2.7-1.6-.6-.8-.9-1.7-.9-2.7 0-.7.1-1.3.4-1.9s.6-1.1 1.1-1.5c.5-.4 1.1-.8 1.8-1 .7-.2 1.6-.4 2.6-.4.4 0 .8 0 1.2.1.4 0 .7.1 1 .2h5.5v2.9h-2c.2.6.3 1.1.3 1.6 0 .6-.1 1.2-.4 1.8s-.6 1.1-1.1 1.5-1.1.8-1.8 1c-.7.2-1.6.4-2.6.4h-.2c-.1.1-.1.3-.2.4 0 .1-.1.3-.1.4 0 .3.1.5.3.6.2.1.4.2.7.2l2.4.1c1.4.1 2.5.5 3.3 1.1s1.2 1.6 1.2 2.8c0 .9-.2 1.6-.7 2.3-.5.6-1.1 1.2-1.8 1.6-.8.4-1.6.7-2.6 1-1 .2-70 .3-71 .3-.8 0-1.5-.1-2.3-.2-.7-.1-1.4-.3-2-.6-.6-.3-1-.6-1.4-1.1-.4-.4-.5-.9-.5-1.6 0 0 0 .2.1-.1h6.5l69.3-.1h1.1c.4-.1.6-.2.8-.4.2-.2.3-.5.3-.7 0-.3-.1-.6-.4-.7-.2-.1-.6-.2-1.1-.3l-3.3-.3m1.5-7.5c.7 0 1.1-.2 1.5-.5.3-.3.5-.8.5-1.4 0-.6-.2-1.1-.5-1.4s-.8-.5-1.5-.5-1.1.2-1.5.5-.5.8-.5 1.4c0 .6.2 1.1.5 1.4.3.3.8.5 1.5.5zm12.1 10h23.5c.2.3.1.1.1.1 0 .7-.1 1.1-.5 1.6-.4.4-.8.8-1.4 1.1-.6.3-1.2.5-2 .6-.7.1-21.8.2-22.6.2l2.9-3.6zm2.9-16.6c1.8 0 3.2.5 4.3 1.6 1 1.1 1.6 2.5 1.6 4.4 0 .7-.1 1.5-.3 2.3h-8c0 .8.3 1.5.9 2 .5.5 1.3.8 2.5.8.7 0 1.4-.1 2.1-.2.7-.1 1.4-.3 1.9-.5l.6 2.9c-.7.4-1.5.6-2.4.8-.9.2-1.8.3-2.8.3-1.2 0-2.2-.2-3.2-.5-.9-.3-1.7-.8-2.3-1.4-.6-.6-1.1-1.4-1.4-2.2-.3-.9-.5-1.8-.5-2.9 0-1.1.2-2.1.5-3s.8-1.7 1.4-2.3c.6-.6 1.3-1.1 2.2-1.4.9-.5 1.8-.7 2.9-.7zm-.1 2.8c-.7 0-1.3.2-1.6.7-.4.5-.6 1.1-.6 1.9h4c0-.1.1-.3.1-.5 0-.6-.2-1.1-.5-1.5-.4-.4-.8-.6-1.4-.6zm20.9 11.2h-4.3v-1.7c-.4.6-1 1.1-1.7 1.5-.7.4-1.5.5-2.5.5-.8 0-1.5-.2-2.2-.5-.7-.3-1.3-.8-1.8-1.4-.5-.6-.9-1.3-1.2-2.2-.3-.9-.4-1.8-.4-2.9 0-1.2.2-2.2.6-3.2.4-.9.9-1.7 1.5-2.3.6-.6 1.4-1.1 2.3-1.4.9-.3 1.8-.5 2.7-.5.5 0 .9 0 1.3.1s.7.1 1 .2v-6.1h4.5v19.9zm-6.8-3.1c1 0 1.7-.3 2.3-1v-6.3c-.4-.1-.9-.2-1.6-.2-1.1 0-2 .3-2.5 1-.6.7-.8 1.6-.8 2.8 0 1.1.2 1.9.6 2.6s1.1 1.1 2 1.1z"/><path d="M1302.9-432.3c-1.9 0-2.1.6-2.8 1.5v8.3h-4.5v-9.4c0-2.4 1.9-4.3 4.3-4.3h6.2l-3.2 3.9z"/><text transform="translate(1262.994 -771.781)"><tspan x="0" y="0" font-family="Seravek-Bold" font-size="28">seravek </tspan><tspan x="0" y="33.6" font-family="Seravek-Bold" font-size="28">-25 leading</tspan></text><path d="M1330.1-422.9s.5.3 1.9.5M33.8 78.2h-7.1l-1.1 3.6h-4.7l6.9-18.6h5l6.9 18.6H35l-1.2-3.6zm-5.9-3.6h4.8l-2.4-7.9-2.4 7.9zM41 62.1h4.5v7.1c.4-.4.9-.7 1.4-1 .6-.3 1.2-.4 2.1-.4.9 0 1.7.2 2.4.5s1.3.8 1.9 1.5c.5.6.9 1.4 1.2 2.2.3.9.4 1.8.4 2.8 0 1-.2 1.9-.5 2.8-.3.9-.8 1.7-1.5 2.3-.7.7-1.5 1.2-2.5 1.6-1 .4-2.1.6-3.5.6-1.1 0-2.2-.1-3.2-.4-1-.2-1.9-.6-2.8-1V62.1zm6.7 9.2c-.8 0-1.6.3-2.2.8v6.5c.2.1.4.2.7.2.3.1.6.1.9.1.6 0 1.1-.1 1.5-.3.4-.2.8-.5 1-.8.3-.4.5-.8.6-1.2.1-.5.2-1 .2-1.5 0-1.1-.2-2-.7-2.7-.4-.8-1.1-1.1-2-1.1zm38.9 10.6h-4.3v-1.7c-.4.6-1 1.1-1.7 1.5-.7.4-1.5.5-2.5.5-.8 0-1.5-.2-2.2-.5-.7-.3-1.3-.8-1.8-1.4-.5-.6-.9-1.3-1.2-2.2-.3-.9-.4-1.8-.4-2.9 0-1.2.2-2.2.6-3.2.4-.9.9-1.7 1.5-2.3.6-.6 1.4-1.1 2.3-1.4.9-.3 1.8-.5 2.7-.5.5 0 .9 0 1.3.1s.7.1 1 .2V62h4.5v19.9zm-6.8-3.2c1 0 1.7-.3 2.3-1v-6.3c-.4-.1-.9-.2-1.6-.2-1.1 0-2 .3-2.5 1-.6.7-.8 1.6-.8 2.8 0 1.1.2 1.9.6 2.6s1.1 1.1 2 1.1z"/><path d="M91.2 81.4c-.8-.4-1.2-1-1.2-1.9 0-.4.1-.7.2-1 .1-.3.3-.5.5-.7.2-.2.4-.4.7-.6s.5-.3.7-.4c-1.2-.3-2.1-.9-2.7-1.6-.6-.8-.9-1.7-.9-2.7 0-.7.1-1.3.4-1.9s.6-1.1 1.1-1.5c.5-.4 1.1-.8 1.8-1 .7-.2 1.6-.4 2.6-.4.4 0 .8 0 1.2.1.4 0 .7.1 1 .2h5.5v3h-2c.2.6.3 1.1.3 1.6 0 .6-.1 1.2-.4 1.8s-.6 1.1-1.1 1.5-1.1.8-1.8 1c-.7.2-1.6.4-2.6.4h-.2c-.1.1-.1.3-.2.4 0 .1-.1.3-.1.4 0 .3.1.5.3.6.2.1.4.2.7.2l2.4.1c1.4.1 2.5.5 3.3 1.1s1.2 1.6 1.2 2.8c0 .9-.2 1.6-.7 2.3-.5.6-1.1 1.2-1.8 1.6-.8.4-1.6.7-2.6 1-1 .2-70 .3-71 .3-.8 0-1.5-.1-2.3-.2-.7-.1-1.4-.3-2-.6-.6-.3-1-.6-1.4-1.1-.4-.4-.5-.9-.5-1.6 0 0 0 .2.1-.1h6.5l69.3-.1h1.1c.4-.1.6-.2.8-.4.2-.2.3-.5.3-.7 0-.3-.1-.6-.4-.7-.2-.1-.6-.2-1.1-.3l-3.3-.3m1.5-7.5c.7 0 1.1-.2 1.5-.5.3-.3.5-.8.5-1.4 0-.6-.2-1.1-.5-1.4s-.8-.5-1.5-.5-1.1.2-1.5.5-.5.8-.5 1.4c0 .6.2 1.1.5 1.4.4.3.9.5 1.5.5zm13.2 9.9h22.5c.2.3.1.1.1.1 0 .7-.1 1.1-.5 1.6-.4.4-.8.8-1.4 1.1-.6.3-1.2.5-2 .6-.7.1-20.8.2-21.6.2l2.9-3.6zm1.8-16.5c1.8 0 3.2.5 4.3 1.6 1 1.1 1.6 2.5 1.6 4.4 0 .7-.1 1.5-.3 2.3h-8c0 .8.3 1.5.9 2 .5.5 1.3.8 2.5.8.7 0 1.4-.1 2.1-.2.7-.1 1.4-.3 1.9-.5l.6 2.7c-.7.4-1.5.6-2.4.8-.9.2-1.8.3-2.8.3-1.2 0-2.2-.2-3.2-.5-.9-.3-1.7-.8-2.3-1.4-.6-.6-1.1-1.4-1.4-2.2-.3-.9-.5-1.8-.5-2.9 0-1.1.2-2.1.5-3s.8-1.7 1.4-2.3c.6-.6 1.3-1.1 2.2-1.4.9-.4 1.9-.5 2.9-.5zm-.1 2.8c-.7 0-1.3.2-1.6.7-.4.5-.6 1.1-.6 1.9h4c0-.1.1-.3.1-.5 0-.6-.2-1.1-.5-1.5-.4-.4-.8-.6-1.4-.6zm20.9 11.2h-4.3v-1.7c-.4.6-1 1.1-1.7 1.5-.7.4-1.5.5-2.5.5-.8 0-1.5-.2-2.2-.5-.7-.3-1.3-.8-1.8-1.4-.5-.6-.9-1.3-1.2-2.2-.3-.9-.4-1.8-.4-2.9 0-1.2.2-2.2.6-3.2.4-.9.9-1.7 1.5-2.3.6-.6 1.4-1.1 2.3-1.4.9-.3 1.8-.5 2.7-.5.5 0 .9 0 1.3.1s.7.1 1 .2V62h4.5v19.9zm-6.8-3.2c1 0 1.7-.3 2.3-1v-6.3c-.4-.1-.9-.2-1.6-.2-1.1 0-2 .3-2.5 1-.6.7-.8 1.6-.8 2.8 0 1.1.2 1.9.6 2.6s1.1 1.1 2 1.1z"/><path d="M64 72.1c-1.9 0-2.1.6-2.8 1.5v8.3h-4.5v-9.4c0-2.4 1.9-4.3 4.3-4.3h6.2L64 72.1zm27.2 9.3s.5.3 1.9.5"/><path class="st1" d="M1335.9-493.9h15v15h-15z"/><path class="st0" d="M831.7-616.7h12.1v12.1h-12.1z"/><path class="st1" d="M837.6-623.8h12.1v12.1h-12.1z"/><path class="st0" d="M1350.9-493.9h15v15h-15z"/><path d="M1337.6-474.7h28.1c.2.3.2.1.2.1 0 .7-.2 1.1-.6 1.6-.4.4-1 .8-1.7 1.1-.7.3-1.5.5-2.4.6-.9.1-26.2.2-27.1.2l3.5-3.6zM843.3-606.9v-7.3l4.3-5.1c.1-.1.2 0 .2.1v12.3h-4.5zm-2.5-9.8c-1 0-1.5.2-1.9.4-.7.5-1 1.3-1 2.1v7.3h-4.5v-9.4c0-2.4 1.9-4.3 4.3-4.3h6.2l-3.1 3.9z"/><path class="st0" d="M592.4 75.8h176.4v176.4H592.4z"/><path class="st1" d="M691.5-22h176.4v176.4H691.5z"/><path d="M768.8 215.7V108.8l62.3-75c1-1.2 3-.5 3 1.1v180.8h-65.3zM732.7 71.9h-1.3c-12.9 0-20.3 2.3-25.8 6.2-9.7 7-14.3 19.1-14.3 31.1v106.3H626V78.8c0-34.9 28.3-63.2 63.2-63.2h90.5l-47 56.3z"/><path class="st0" d="M1297-599.1v.5h-19.5v-32.1h-13.7c0 .5-.1 1-.1 1.5v30.3h14.5v-15.4h17.2v15.2h1.6z"/><path class="st0" d="M1297-630.1v31.5h-1.7v-15.2h-17.2v15.4h-14.5v-30.3c0-.5 0-1 .1-1.5h33.3z"/><path class="st1" d="M1309.8-642.8v29.1-24.6c0-.4-.5-.5-.7-.2L1297-624v-6h-11.9c.6-.1 1.2-.1 1.9-.1h.3l10.4-12.5h-20.5v-.2h32.6z"/><path class="st1" d="M1309.8-638.4v24.6h-32.6v-28.9h20.5l-10.4 12.5h-.3c-.7 0-1.4 0-1.9.1h11.9v6l12.1-14.6c.3-.2.7 0 .7.3z"/><path d="M1309.1-638.6L1297-624l-1.7 2v23.5h14.5v-39.8c0-.4-.4-.6-.7-.3zm-31.4-4.1h-.5c-7 .3-12.7 5.7-13.4 12.6 0 .5-.1 1-.1 1.5v30.3h14.5v-23.5c0-2.6 1-5.3 3.2-6.9.9-.7 2.1-1.1 3.8-1.3.6-.1 1.2-.1 1.9-.1h.3l10.4-12.5h-20.1z"/><path class="st0" d="M1296.3-661.3v.5h-19.5v-32.1h-13.7c0 .5-.1 1-.1 1.5v30.3h14.5v-15.4h17.2v15.2h1.6z"/><path class="st0" d="M1294.6-681.3v20.6-15.3h-17.2v15.4H1263v-30.3c0-.5 0-1 .1-1.5h22.3c6 .1 9.2 5 9.2 11.1z"/><path class="st1" d="M1294.6-684.2v8.2l-18.2.1v-28.4l.5-.5h20l-10.4 12.5h-.3c-.7 0 .9-.1.3 0l2.2.1c4.5.6 6.5 5.5 5.9 8l1.7-1.9-1.7 1.9c.3-.3 0-.4 0 0z"/><path d="M1308.4-700.8l-12.1 14.6-1.7 2v23.5h14.5v-39.8c0-.5-.4-.6-.7-.3zm-31.4-4.1h-.5c-7 .3-12.7 5.7-13.4 12.6 0 .5-.1 1-.1 1.5v30.3h14.5V-684c0-2.6 1-5.3 3.2-6.9.9-.7 2.1-1.1 3.8-1.3.6-.1 1.5-.1 2.2-.1l10.4-12.5H1277zM66.5 81.9v-7.3l4.3-5.1c.1-.1.2 0 .2.1v12.3h-4.5zM64 72.1c-1 0-1.5.2-1.9.4-.7.5-1 1.3-1 2.1V82h-4.5v-9.4c0-2.4 1.9-4.3 4.3-4.3h6.2L64 72.1z"/></svg>