<svg width="288" height="75" xmlns="http://www.w3.org/2000/svg"><defs><linearGradient x1="10.432%" y1="15.732%" x2="121.235%" y2="57.488%" id="a"><stop stop-color="#5270FF" offset="0%"/><stop stop-color="#68A7FC" offset="100%"/><stop stop-color="#7174FF" offset="100%"/></linearGradient><linearGradient x1="10.432%" y1="14.832%" x2="121.235%" y2="57.684%" id="b"><stop stop-color="#5270FF" offset="0%"/><stop stop-color="#68A7FC" offset="100%"/><stop stop-color="#7174FF" offset="100%"/></linearGradient></defs><g fill="none" fill-rule="evenodd"><path d="M113.882 20.872l15.33 34.594h-7.081l-3.603-8.42h-15.43l-3.354 8.42h-7.031l14.311-34.594h6.858zm-8.746 21.098h11.205l-5.863-13.694-5.342 13.694zm63.402-21.098l-20.225 29.37h20.324v5.224h-31.852l20.2-29.37h-18.983v-5.224h30.536zm40.692 0v5.225h-12.323v29.37h-6.709v-29.37h-12.323v-5.225h31.355zm34.233 0v5.225h-15.728v9.088h15.057v5.225h-15.057v9.831h16.076v5.225h-22.784V20.872h22.436zm31.524-.446c1.971 0 3.901.223 5.79.669 1.888.445 3.925 1.205 6.112 2.278v6.29c-2.137-1.222-4.112-2.105-5.926-2.65a19.629 19.629 0 00-5.677-.817c-2.469 0-4.696.508-6.684 1.523-1.988 1.015-3.532 2.447-4.634 4.296-1.101 1.85-1.652 3.905-1.652 6.166 0 2.312.547 4.384 1.64 6.216 1.093 1.833 2.633 3.248 4.621 4.247 1.988.999 4.224 1.498 6.709 1.498 1.904 0 3.722-.272 5.453-.817 1.731-.545 3.913-1.527 6.547-2.947v6.29c-2.253 1.172-4.323 2.006-6.211 2.501-1.889.495-4.092.743-6.61.743-3.66 0-6.931-.726-9.814-2.18-2.882-1.452-5.147-3.544-6.795-6.277-1.648-2.732-2.472-5.724-2.472-8.976 0-3.484.849-6.612 2.547-9.386 1.697-2.773 4.033-4.911 7.006-6.413 2.973-1.503 6.323-2.254 10.05-2.254z" fill="#4E5461" fill-rule="nonzero"/><path d="M13.642 21.943h6.337c.575 0 1.042-.467 1.042-1.042v-6.208c0-.575.466-1.042 1.041-1.042h5.051c.576 0 1.042.467 1.042 1.042v6.208c0 .575.467 1.042 1.042 1.042h28.44c.576 0 1.043-.467 1.043-1.042v-6.208c0-.575.466-1.042 1.041-1.042h5.051c.576 0 1.042.467 1.042 1.042v6.208c0 .575.467 1.042 1.042 1.042h6.337c.575 0 1.042.466 1.042 1.042v4.942c0 .575-.467 1.041-1.042 1.041h-6.337c-.575 0-1.042.467-1.042 1.042v27.974c0 .575.467 1.042 1.042 1.042h6.337c.575 0 1.042.466 1.042 1.042v5.09c0 .576-.467 1.043-1.042 1.043h-6.337c-.575 0-1.042.466-1.042 1.041v6.208c0 .576-.466 1.042-1.042 1.042h-5.05a1.042 1.042 0 01-1.042-1.042v-6.208c0-.575-.467-1.041-1.042-1.041h-28.44c-.576 0-1.043.466-1.043 1.041v6.208c0 .576-.466 1.042-1.042 1.042h-5.05a1.042 1.042 0 01-1.042-1.042v-6.208c0-.575-.467-1.041-1.042-1.041h-6.337a1.042 1.042 0 01-1.042-1.042v-5.091c0-.576.466-1.042 1.042-1.042h6.337c.575 0 1.042-.467 1.042-1.042V30.01c0-.575-.467-1.042-1.042-1.042h-6.337a1.042 1.042 0 01-1.042-1.041v-4.942c0-.576.466-1.042 1.042-1.042zm15.555 7.025c-.575 0-1.042.467-1.042 1.042v27.974c0 .575.467 1.042 1.042 1.042h28.44c.576 0 1.043-.467 1.043-1.042V30.01c0-.575-.467-1.042-1.042-1.042h-28.44z" fill="url(#a)" transform="rotate(-45 31.968 47.814)"/><path d="M35.938 33.652l14.705.125a2.917 2.917 0 012.892 2.893l.125 14.704a2.917 2.917 0 01-2.942 2.942l-14.704-.125a2.917 2.917 0 01-2.893-2.893l-.125-14.704a2.917 2.917 0 012.942-2.942z" fill="url(#b)" opacity=".459" transform="rotate(-45 31.878 47.727)"/></g></svg>