<svg xmlns="http://www.w3.org/2000/svg" width="937.53" height="78.76" viewBox="0 0 937.53 78.76">
  <path id="Path_33" data-name="Path 33" d="M22.66-77H4.4V0H23.43C35.53,0,41.8-6.38,41.8-18.26v-6.27c0-8.14-2.53-13.97-9.02-16.5,5.39-2.53,7.81-7.59,7.81-15.51v-2.75C40.59-71.17,35.2-77,22.66-77Zm-.77,42.35c5.5,0,7.81,2.2,7.81,9.35v6.71c0,5.72-2.2,7.59-6.27,7.59H16.5V-34.65ZM22.33-66c4.29,0,6.16,2.42,6.16,7.92v4.29c0,6.16-2.75,8.14-7.26,8.14H16.5V-66ZM62.81,0H94.82V-11H74.91V-77H62.81Zm62.15-59.29c0-5.5,2.42-7.59,6.27-7.59s6.27,2.09,6.27,7.59v41.58c0,5.5-2.42,7.59-6.27,7.59s-6.27-2.09-6.27-7.59Zm-12.1,40.81c0,12.32,6.49,19.36,18.37,19.36S149.6-6.16,149.6-18.48V-58.52c0-12.32-6.49-19.36-18.37-19.36s-18.37,7.04-18.37,19.36Zm81.95-10.23v11c0,5.5-2.42,7.48-6.27,7.48s-6.27-1.98-6.27-7.48V-59.29c0-5.5,2.42-7.59,6.27-7.59s6.27,2.09,6.27,7.59v8.25h11.44v-7.48c0-12.32-6.16-19.36-18.04-19.36s-18.04,7.04-18.04,19.36v40.04c0,12.32,6.16,19.36,18.04,19.36s18.04-7.04,18.04-19.36V-28.71ZM254.98,0h12.43L250.58-42.68,267.41-77h-12.1L239.47-43.45V-77h-12.1V0h12.1V-23.65l3.74-7.04Zm43.78-66h19.91V-77H286.66V0h12.1V-31.79h15.62v-11H298.76Zm51.59,0h20.9V-77h-33V0h33V-11h-20.9V-33.55h16.61v-11H350.35Zm40.59,7.48c0,22,23.65,24.97,23.65,40.81,0,5.5-2.42,7.48-6.27,7.48s-6.27-1.98-6.27-7.48v-5.5H390.61v4.73c0,12.32,6.16,19.36,18.04,19.36s18.04-7.04,18.04-19.36c0-22-23.65-24.97-23.65-40.81,0-5.5,2.2-7.59,6.05-7.59s6.05,2.09,6.05,7.59v3.19h11.44v-2.42c0-12.32-6.05-19.36-17.82-19.36S390.94-70.84,390.94-58.52ZM443.85-66H456.5V0h12.1V-66h12.65V-77h-37.4ZM556.93,0h12.43V-77H558.58v46.09L546.15-77H530.97V0h10.89V-55.77Zm46.2,0h12.1V-25.52L630.52-77H618.97l-9.24,35.09L600.49-77H587.84l15.29,51.48Zm67.98-28.71v11c0,5.5-2.42,7.48-6.27,7.48s-6.27-1.98-6.27-7.48V-59.29c0-5.5,2.42-7.59,6.27-7.59s6.27,2.09,6.27,7.59v8.25h11.44v-7.48c0-12.32-6.16-19.36-18.04-19.36s-18.04,7.04-18.04,19.36v40.04c0,12.32,6.16,19.36,18.04,19.36s18.04-7.04,18.04-19.36V-28.71Zm87.34-29.37c0,22.22-23.98,25.96-23.98,48.62V0h34.98V-11H746.57a8.327,8.327,0,0,1-.11-1.65c0-12.65,24.09-21.67,24.09-45.87,0-12.32-6.16-19.36-18.04-19.36s-18.04,7.04-18.04,19.36v7.48h11.44v-8.25c0-5.5,2.42-7.59,6.27-7.59S758.45-65.01,758.45-58.08Zm44.44-1.21c0-5.5,2.42-7.59,6.27-7.59s6.27,2.09,6.27,7.59v41.58c0,5.5-2.42,7.59-6.27,7.59s-6.27-2.09-6.27-7.59Zm-12.1,40.81c0,12.32,6.49,19.36,18.37,19.36s18.37-7.04,18.37-19.36V-58.52c0-12.32-6.49-19.36-18.37-19.36s-18.37,7.04-18.37,19.36Zm65.78-40.26h9.35V0h12.1V-77h-8.14c-1.87,5.17-3.96,9.68-13.31,9.68Zm85.36.22c0-12.32-6.49-19.36-18.37-19.36s-18.37,7.04-18.37,19.36v14.08c0,11.33,4.51,17.6,13.42,17.6,5.39,0,9.13-2.42,11.22-6.82v14.08c0,7.37-2.42,9.46-6.71,9.46-3.85,0-6.27-2.09-6.27-7.59v-2.75H905.41v1.98c0,12.32,6.16,19.36,18.04,19.36,12.54,0,18.48-7.04,18.48-20.02ZM923.56-37.84c-3.85,0-6.27-2.09-6.27-7.59V-59.29c0-5.5,2.42-7.48,6.27-7.48s6.27,1.98,6.27,7.48v13.86C929.83-39.93,927.41-37.84,923.56-37.84Z" transform="translate(-4.4 77.88)" fill="#fff"/>
</svg>
