<svg xmlns="http://www.w3.org/2000/svg" width="143.822" height="143.822" viewBox="0 0 143.822 143.822">
  <g id="distributed" transform="translate(-1 -1)">
    <rect id="Rectangle_9" data-name="Rectangle 9" width="40" height="40" transform="translate(53 53)" fill="#cd7f32"/>
    <path id="Path_170" data-name="Path 170" d="M62.435,64.755H25.32A2.32,2.32,0,0,1,23,62.435V25.32A2.32,2.32,0,0,1,25.32,23H62.435a2.32,2.32,0,0,1,2.32,2.32V62.435A2.32,2.32,0,0,1,62.435,64.755Zm-34.8-4.639H60.115V27.639H27.639Z" transform="translate(29.034 29.034)"/>
    <path id="Path_195" data-name="Path 195" d="M0,0H40V40H0Z" transform="translate(2 2)" fill="#cd7f32"/>
    <path id="Path_171" data-name="Path 171" d="M40.435,42.755H3.32A2.32,2.32,0,0,1,1,40.435V3.32A2.32,2.32,0,0,1,3.32,1H40.435a2.32,2.32,0,0,1,2.32,2.32V40.435A2.32,2.32,0,0,1,40.435,42.755Zm-34.8-4.639H38.115V5.639H5.639Z" transform="translate(0 0)"/>
    <path id="Path_197" data-name="Path 197" d="M0,0H40V40H0Z" transform="translate(104 104)" fill="#cd7f32"/>
    <path id="Path_172" data-name="Path 172" d="M84.435,86.755H47.32A2.32,2.32,0,0,1,45,84.435V47.32A2.32,2.32,0,0,1,47.32,45H84.435a2.32,2.32,0,0,1,2.32,2.32V84.435A2.32,2.32,0,0,1,84.435,86.755Zm-34.8-4.639H82.115V49.639H49.639Z" transform="translate(58.067 58.067)"/>
    <path id="Path_194" data-name="Path 194" d="M0,0H40V40H0Z" transform="translate(104 2)" fill="#cd7f32"/>
    <rect id="Rectangle_10" data-name="Rectangle 10" width="10" height="10" transform="translate(118 68)" fill="#cd7f32"/>
    <rect id="Rectangle_11" data-name="Rectangle 11" width="10" height="10" transform="translate(68 118)" fill="#cd7f32"/>
    <rect id="Rectangle_12" data-name="Rectangle 12" width="10" height="10" transform="translate(68 18)" fill="#cd7f32"/>
    <rect id="Rectangle_13" data-name="Rectangle 13" width="10" height="10" transform="translate(17 68)" fill="#cd7f32"/>
    <path id="Path_196" data-name="Path 196" d="M0,0H40V40H0Z" transform="translate(2 104)" fill="#cd7f32"/>
    <path id="Path_173" data-name="Path 173" d="M84.435,42.755H47.32A2.32,2.32,0,0,1,45,40.435V3.32A2.32,2.32,0,0,1,47.32,1H84.435a2.32,2.32,0,0,1,2.32,2.32V40.435A2.32,2.32,0,0,1,84.435,42.755Zm-34.8-4.639H82.115V5.639H49.639Z" transform="translate(58.067 0)"/>
    <path id="Path_174" data-name="Path 174" d="M40.435,86.755H3.32A2.32,2.32,0,0,1,1,84.435V47.32A2.32,2.32,0,0,1,3.32,45H40.435a2.32,2.32,0,0,1,2.32,2.32V84.435A2.32,2.32,0,0,1,40.435,86.755Zm-34.8-4.639H38.115V49.639H5.639Z" transform="translate(0 58.067)"/>
    <path id="Path_175" data-name="Path 175" d="M40.6,20.918H31.32A2.32,2.32,0,0,1,29,18.6V9.32A2.32,2.32,0,0,1,31.32,7H40.6a2.32,2.32,0,0,1,2.32,2.32V18.6A2.32,2.32,0,0,1,40.6,20.918Zm-6.959-4.639h4.639V11.639H33.639Z" transform="translate(36.952 7.918)"/>
    <path id="Path_176" data-name="Path 176" d="M33.32,39.837A2.32,2.32,0,0,1,31,37.517V14.32a2.32,2.32,0,1,1,4.639,0v23.2A2.32,2.32,0,0,1,33.32,39.837Z" transform="translate(39.591 14.517)"/>
    <path id="Path_177" data-name="Path 177" d="M59.517,13.639H36.32A2.32,2.32,0,0,1,36.32,9h23.2a2.32,2.32,0,1,1,0,4.639Z" transform="translate(43.551 10.558)"/>
    <path id="Path_178" data-name="Path 178" d="M40.6,64.918H31.32A2.32,2.32,0,0,1,29,62.6V53.32A2.32,2.32,0,0,1,31.32,51H40.6a2.32,2.32,0,0,1,2.32,2.32V62.6A2.32,2.32,0,0,1,40.6,64.918Zm-6.959-4.639h4.639V55.639H33.639Z" transform="translate(36.952 65.986)"/>
    <path id="Path_179" data-name="Path 179" d="M33.32,67.837A2.32,2.32,0,0,1,31,65.517V42.32a2.32,2.32,0,1,1,4.639,0v23.2A2.32,2.32,0,0,1,33.32,67.837Z" transform="translate(39.591 51.469)"/>
    <path id="Path_180" data-name="Path 180" d="M43.517,57.639H20.32a2.32,2.32,0,0,1,0-4.639h23.2a2.32,2.32,0,1,1,0,4.639Z" transform="translate(22.435 68.625)"/>
    <path id="Path_181" data-name="Path 181" d="M18.6,42.918H9.32A2.32,2.32,0,0,1,7,40.6V31.32A2.32,2.32,0,0,1,9.32,29H18.6a2.32,2.32,0,0,1,2.32,2.32V40.6A2.32,2.32,0,0,1,18.6,42.918Zm-6.959-4.639h4.639V33.639H11.639Z" transform="translate(7.918 36.952)"/>
    <path id="Path_182" data-name="Path 182" d="M37.517,35.639H14.32a2.32,2.32,0,1,1,0-4.639h23.2a2.32,2.32,0,1,1,0,4.639Z" transform="translate(14.517 39.591)"/>
    <path id="Path_183" data-name="Path 183" d="M11.32,45.837A2.32,2.32,0,0,1,9,43.517V20.32a2.32,2.32,0,0,1,4.639,0v23.2A2.32,2.32,0,0,1,11.32,45.837Z" transform="translate(10.558 22.435)"/>
    <path id="Path_184" data-name="Path 184" d="M62.6,42.918H53.32A2.32,2.32,0,0,1,51,40.6V31.32A2.32,2.32,0,0,1,53.32,29H62.6a2.32,2.32,0,0,1,2.32,2.32V40.6A2.32,2.32,0,0,1,62.6,42.918Zm-6.959-4.639h4.639V33.639H55.639Z" transform="translate(65.986 36.952)"/>
    <path id="Path_185" data-name="Path 185" d="M65.517,35.639H42.32a2.32,2.32,0,1,1,0-4.639h23.2a2.32,2.32,0,0,1,0,4.639Z" transform="translate(51.469 39.591)"/>
    <path id="Path_186" data-name="Path 186" d="M55.32,61.837A2.32,2.32,0,0,1,53,59.517V36.32a2.32,2.32,0,1,1,4.639,0v23.2A2.32,2.32,0,0,1,55.32,61.837Z" transform="translate(68.625 43.551)"/>
    <path id="Path_187" data-name="Path 187" d="M35.959,42.918a6.959,6.959,0,1,1,6.959-6.959A6.959,6.959,0,0,1,35.959,42.918Zm0-9.279a2.32,2.32,0,1,0,2.32,2.32A2.32,2.32,0,0,0,35.959,33.639Z" transform="translate(36.952 36.952)"/>
    <path id="Path_188" data-name="Path 188" d="M13.959,20.918a6.959,6.959,0,1,1,6.959-6.959A6.959,6.959,0,0,1,13.959,20.918Zm0-9.279a2.32,2.32,0,1,0,2.32,2.32A2.32,2.32,0,0,0,13.959,11.639Z" transform="translate(7.918 7.918)"/>
    <path id="Path_189" data-name="Path 189" d="M13.959,64.918a6.959,6.959,0,1,1,6.959-6.959A6.959,6.959,0,0,1,13.959,64.918Zm0-9.279a2.32,2.32,0,1,0,2.32,2.32A2.32,2.32,0,0,0,13.959,55.639Z" transform="translate(7.918 65.986)"/>
    <path id="Path_190" data-name="Path 190" d="M57.959,20.918a6.959,6.959,0,1,1,6.959-6.959A6.959,6.959,0,0,1,57.959,20.918Zm0-9.279a2.32,2.32,0,1,0,2.32,2.32A2.32,2.32,0,0,0,57.959,11.639Z" transform="translate(65.986 7.918)"/>
    <path id="Path_191" data-name="Path 191" d="M57.959,64.918a6.959,6.959,0,1,1,6.959-6.959A6.959,6.959,0,0,1,57.959,64.918Zm0-9.279a2.32,2.32,0,1,0,2.32,2.32A2.32,2.32,0,0,0,57.959,55.639Z" transform="translate(65.986 65.986)"/>
    <path id="Path_192" data-name="Path 192" d="M64.238,62.639H50.32a2.32,2.32,0,1,1,0-4.639H64.238a2.32,2.32,0,1,1,0,4.639Z" transform="translate(62.027 75.224)"/>
    <path id="Path_193" data-name="Path 193" d="M61.639,62.639H59.32a2.32,2.32,0,1,1,0-4.639h2.32a2.32,2.32,0,1,1,0,4.639Z" transform="translate(73.904 75.224)"/>
  </g>
</svg>
