<svg xmlns="http://www.w3.org/2000/svg" width="153.69" height="89.11" viewBox="0 0 153.69 89.11">
  <g id="Group_31" data-name="Group 31" transform="translate(-443.9 -791.62)">
    <path id="Path_265" data-name="Path 265" d="M16.5-66H36.41V-77H4.4V0H16.5V-31.79H32.12v-11H16.5ZM70.95-77H53.24L40.92,0H52.03l2.09-13.97H68.97L71.06,0H83.27ZM61.49-63.36l5.83,38.94H55.66ZM91.08-18.48C91.08-6.16,97.57.88,109.45.88a24.813,24.813,0,0,0,8.47-1.43c1.65,3.3,5.06,5.28,10.45,5.28h1.65V-6.05h-1.1c-1.98,0-2.86-.22-3.41-1.65a22.662,22.662,0,0,0,2.31-10.78V-58.52c0-12.32-6.49-19.36-18.37-19.36S91.08-70.84,91.08-58.52Zm12.1-40.81c0-5.5,2.42-7.59,6.27-7.59s6.27,2.09,6.27,7.59v41.58c0,5.5-2.42,7.59-6.27,7.59s-6.27-2.09-6.27-7.59Zm35.75,47.63V0h11.66V-11.66Z" transform="translate(447 876)" fill="#7988e4"/>
    <path id="Path_264" data-name="Path 264" d="M16.5-66H36.41V-77H4.4V0H16.5V-31.79H32.12v-11H16.5ZM70.95-77H53.24L40.92,0H52.03l2.09-13.97H68.97L71.06,0H83.27ZM61.49-63.36l5.83,38.94H55.66ZM91.08-18.48C91.08-6.16,97.57.88,109.45.88a24.813,24.813,0,0,0,8.47-1.43c1.65,3.3,5.06,5.28,10.45,5.28h1.65V-6.05h-1.1c-1.98,0-2.86-.22-3.41-1.65a22.662,22.662,0,0,0,2.31-10.78V-58.52c0-12.32-6.49-19.36-18.37-19.36S91.08-70.84,91.08-58.52Zm12.1-40.81c0-5.5,2.42-7.59,6.27-7.59s6.27,2.09,6.27,7.59v41.58c0,5.5-2.42,7.59-6.27,7.59s-6.27-2.09-6.27-7.59Zm35.75,47.63V0h11.66V-11.66Z" transform="translate(441 871)" fill="#ef034f" stroke="#fff" stroke-width="3"/>
    <path id="Path_263" data-name="Path 263" d="M0,0,6,6" transform="translate(444.5 865.5)" fill="none" stroke="#fff" stroke-width="1" opacity="0.58"/>
    <path id="Path_262" data-name="Path 262" d="M0,0,13,13" transform="translate(444.5 845.5)" fill="none" stroke="#fff" stroke-width="1" opacity="0.58"/>
    <path id="Path_261" data-name="Path 261" d="M0,0,14,14" transform="translate(444.5 825.5)" fill="none" stroke="#fff" stroke-width="1" opacity="0.58"/>
    <path id="Path_260" data-name="Path 260" d="M0,0,8,8" transform="translate(482.5 863.5)" fill="none" stroke="#fff" stroke-width="1" opacity="0.58"/>
    <path id="Path_259" data-name="Path 259" d="M0,0,13,13" transform="translate(444.5 805.5)" fill="none" stroke="#fff" stroke-width="1" opacity="0.58"/>
    <path id="Path_258" data-name="Path 258" d="M0,0,7,7" transform="translate(466.5 827.5)" fill="none" stroke="#fff" stroke-width="1" opacity="0.58"/>
    <path id="Path_257" data-name="Path 257" d="M0,0,10,10" transform="translate(486.5 847.5)" fill="none" stroke="#fff" stroke-width="1" opacity="0.58"/>
    <path id="Path_256" data-name="Path 256" d="M0,0,11,11" transform="translate(453.5 794.5)" fill="none" stroke="#fff" stroke-width="1" opacity="0.58"/>
    <path id="Path_255" data-name="Path 255" d="M0,0,11,11" transform="translate(487.5 828.5)" fill="none" stroke="#fff" stroke-width="1" opacity="0.58"/>
    <path id="Path_254" data-name="Path 254" d="M0,0,17,17" transform="translate(505.5 846.5)" fill="none" stroke="#fff" stroke-width="1" opacity="0.58"/>
    <path id="Path_253" data-name="Path 253" d="M0,0,5,5" transform="translate(472.5 793.5)" fill="none" stroke="#fff" stroke-width="1" opacity="0.58"/>
    <path id="Path_252" data-name="Path 252" d="M0,0,9,9" transform="translate(490.5 811.5)" fill="none" stroke="#fff" stroke-width="1" opacity="0.58"/>
    <path id="Path_251" data-name="Path 251" d="M0,0,14,14" transform="translate(504.5 825.5)" fill="none" stroke="#fff" stroke-width="1" opacity="0.58"/>
    <path id="Path_250" data-name="Path 250" d="M0,0,19,19" transform="translate(531.5 852.5)" fill="none" stroke="#fff" stroke-width="1" opacity="0.58"/>
    <path id="Path_249" data-name="Path 249" d="M0,0,22,22" transform="translate(493.5 794.5)" fill="none" stroke="#fff" stroke-width="1" opacity="0.58"/>
    <path id="Path_248" data-name="Path 248" d="M0,0,13,13" transform="translate(531.5 832.5)" fill="none" stroke="#fff" stroke-width="1" opacity="0.58"/>
    <path id="Path_247" data-name="Path 247" d="M0,0,15,15" transform="translate(555.5 856.5)" fill="none" stroke="#fff" stroke-width="1" opacity="0.58"/>
    <path id="Path_246" data-name="Path 246" d="M0,0,13,13" transform="translate(531.5 812.5)" fill="none" stroke="#fff" stroke-width="1" opacity="0.58"/>
    <path id="Path_245" data-name="Path 245" d="M0,0,12,12" transform="translate(556.5 837.5)" fill="none" stroke="#fff" stroke-width="1" opacity="0.58"/>
    <path id="Path_244" data-name="Path 244" d="M0,0,11,11" transform="translate(579.5 860.5)" fill="none" stroke="#fff" stroke-width="1" opacity="0.58"/>
    <path id="Path_243" data-name="Path 243" d="M0,0,8,8" transform="translate(537.5 798.5)" fill="none" stroke="#fff" stroke-width="1" opacity="0.58"/>
    <path id="Path_242" data-name="Path 242" d="M0,0,12,12" transform="translate(556.5 817.5)" fill="none" stroke="#fff" stroke-width="1" opacity="0.58"/>
    <path id="Path_241" data-name="Path 241" d="M0,0,17,17" transform="translate(551.5 792.5)" fill="none" stroke="#fff" stroke-width="1" opacity="0.58"/>
  </g>
</svg>
