<svg xmlns="http://www.w3.org/2000/svg" viewBox="0 0 360 414"><path d="M329.2 268.7h-19V105.8h-59v-19h78zM115.6 109.1l-14.1 9.9c-6.1-9.6-14.6-15.3-26-15.3-16.9 0-29.4 12.4-29.4 30 0 17.5 12.4 29.8 29.4 29.8 11.4 0 20-5.7 26-15.3l14.1 9.9c-7.9 13.9-22.6 22.6-40.2 22.6-27 0-48.4-20.4-48.4-47.1s21.4-47.1 48.5-47.1c17.5 0 32.1 8.7 40.1 22.6zm120.8 24.5c0 26.7-21.8 47.1-48.5 47.1s-48.2-20.4-48.2-47.1c0-26.7 21.5-47.1 48.2-47.1s48.5 20.4 48.5 47.1zm-77.6 0c0 17.6 12.3 29.9 29.2 29.9 16.7 0 29.2-12.3 29.2-29.9 0-17.5-12.5-29.9-29.2-29.9-16.9 0-29.2 12.4-29.2 29.9zm53.5 250.8H176l-5 11.6h-19.5l39.6-90.3h6l39.5 90.3h-19.5l-4.8-11.6zm-18.1-44.7l-11.7 29.8h23.4l-11.7-29.8zm136.4 29.8c0 15.6-12.2 26.5-29.7 26.5h-40.2v-90.3h32c16.7 0 28.6 10.3 28.6 25.2 0 6.7-2.5 12.2-6.7 16.3 10 3.5 16 11.3 16 22.3zm-52.1-47.9v20.7h12.7c7.7 0 11.8-4.2 11.8-10.4 0-6.3-4.1-10.3-11.8-10.3h-12.7zm33.9 47.2c0-7-4.8-11.4-12.9-11.4h-21.1v22.7h21.1c8.1 0 12.9-4.2 12.9-11.3zM131.6 396H28.5V215.4h19v161.5h84.1zM57.9 33.5v-5.2H28.5v5.2h12v19h-12v5.2h29.4v-5.2H45.8v-19zm73.3-.1v-5.1h-29.6v29.4h29.6v-5.2h-24.3v-6.9h19v-5.2h-19v-7zM80 28.3H65.6v29.4h14C88.7 57.6 95 51.2 95 43c.1-8.2-6-14.5-15-14.7m-.3 24.3h-8.8V33.4h8.9c5.8.1 9.6 4.2 9.6 9.7 0 5.4-3.8 9.4-9.7 9.5M152.1 27c-8.9 0-16.2 7.2-16.2 16s7.2 16 16.2 16c8.9 0 16.2-7.2 16.2-16s-7.3-16-16.2-16m0 26.4c-5.8 0-10.6-4.7-10.6-10.5s4.7-10.5 10.6-10.5c5.8 0 10.6 4.7 10.6 10.5 0 5.9-4.7 10.5-10.6 10.5" fill="#010101"/></svg>