<svg xmlns="http://www.w3.org/2000/svg" width="261.71" height="85.37" viewBox="0 0 261.71 85.37">
  <g id="Group_10" data-name="Group 10" transform="translate(-884.6 -680.62)">
    <path id="Path_116" data-name="Path 116" d="M1.1,0A49.738,49.738,0,0,0,6.93.22c9.13,0,17.38-3.96,17.38-19.36V-77H12.21v58.74c0,5.94-3.08,7.37-6.93,7.37-1.32,0-2.86,0-4.18-.11ZM35.31-77v58.63C35.31-6.05,41.47.99,53.35.99S71.39-6.05,71.39-18.37V-77H59.95v59.4c0,5.5-2.42,7.48-6.27,7.48s-6.27-1.98-6.27-7.48V-77ZM82.94,0h19.14c12.1,0,18.04-6.71,18.04-19.03V-57.97c0-12.32-5.94-19.03-18.04-19.03H82.94Zm18.92-66c3.85,0,6.16,1.98,6.16,7.48v40.04c0,5.5-2.31,7.48-6.16,7.48H95.04V-66Zm47.41,34.1h5.5v14.19c0,5.5-2.42,7.48-6.27,7.48s-6.27-1.98-6.27-7.48V-59.29c0-5.5,2.42-7.59,6.27-7.59s6.27,2.09,6.27,7.59v8.25h11.44v-7.48c0-12.32-6.16-19.36-18.04-19.36s-18.04,7.04-18.04,19.36v40.04c0,12.32,6.16,19.36,18.04,19.36s18.04-7.04,18.04-19.36V-42.9H149.27ZM189.42-66h20.9V-77h-33V0h33V-11h-20.9V-33.55h16.61v-11H189.42Zm30.14,7.48c0,22,23.65,24.97,23.65,40.81,0,5.5-2.42,7.48-6.27,7.48s-6.27-1.98-6.27-7.48v-5.5H219.23v4.73c0,12.32,6.16,19.36,18.04,19.36s18.04-7.04,18.04-19.36c0-22-23.65-24.97-23.65-40.81,0-5.5,2.2-7.59,6.05-7.59s6.05,2.09,6.05,7.59v3.19H255.2v-2.42c0-12.32-6.05-19.36-17.82-19.36S219.56-70.84,219.56-58.52Z" transform="translate(891 765)" fill="#7988e4"/>
    <path id="Path_115" data-name="Path 115" d="M1.1,0A49.738,49.738,0,0,0,6.93.22c9.13,0,17.38-3.96,17.38-19.36V-77H12.21v58.74c0,5.94-3.08,7.37-6.93,7.37-1.32,0-2.86,0-4.18-.11ZM35.31-77v58.63C35.31-6.05,41.47.99,53.35.99S71.39-6.05,71.39-18.37V-77H59.95v59.4c0,5.5-2.42,7.48-6.27,7.48s-6.27-1.98-6.27-7.48V-77ZM82.94,0h19.14c12.1,0,18.04-6.71,18.04-19.03V-57.97c0-12.32-5.94-19.03-18.04-19.03H82.94Zm18.92-66c3.85,0,6.16,1.98,6.16,7.48v40.04c0,5.5-2.31,7.48-6.16,7.48H95.04V-66Zm47.41,34.1h5.5v14.19c0,5.5-2.42,7.48-6.27,7.48s-6.27-1.98-6.27-7.48V-59.29c0-5.5,2.42-7.59,6.27-7.59s6.27,2.09,6.27,7.59v8.25h11.44v-7.48c0-12.32-6.16-19.36-18.04-19.36s-18.04,7.04-18.04,19.36v40.04c0,12.32,6.16,19.36,18.04,19.36s18.04-7.04,18.04-19.36V-42.9H149.27ZM189.42-66h20.9V-77h-33V0h33V-11h-20.9V-33.55h16.61v-11H189.42Zm30.14,7.48c0,22,23.65,24.97,23.65,40.81,0,5.5-2.42,7.48-6.27,7.48s-6.27-1.98-6.27-7.48v-5.5H219.23v4.73c0,12.32,6.16,19.36,18.04,19.36s18.04-7.04,18.04-19.36c0-22-23.65-24.97-23.65-40.81,0-5.5,2.2-7.59,6.05-7.59s6.05,2.09,6.05,7.59v3.19H255.2v-2.42c0-12.32-6.05-19.36-17.82-19.36S219.56-70.84,219.56-58.52Z" transform="translate(885 760)" fill="#ef034f" stroke="#fff" stroke-width="3"/>
    <line id="Line_25" data-name="Line 25" x2="13" y2="13" transform="translate(896.5 688.5)" fill="none" stroke="#fff" stroke-width="1" opacity="0.58"/>
    <line id="Line_63" data-name="Line 63" x2="14" y2="14" transform="translate(919.5 711.5)" fill="none" stroke="#fff" stroke-width="1" opacity="0.58"/>
    <line id="Line_64" data-name="Line 64" x2="11" y2="11" transform="translate(944.5 736.5)" fill="none" stroke="#fff" stroke-width="1" opacity="0.58"/>
    <line id="Line_31" data-name="Line 31" x2="9" y2="9" transform="translate(1018.5 690.5)" fill="none" stroke="#fff" stroke-width="1" opacity="0.58"/>
    <line id="Line_77" data-name="Line 77" x2="7" y2="7" transform="translate(1044.5 716.5)" fill="none" stroke="#fff" stroke-width="1" opacity="0.58"/>
    <line id="Line_79" data-name="Line 79" x2="12" y2="12" transform="translate(1062.5 734.5)" fill="none" stroke="#fff" stroke-width="1" opacity="0.58"/>
    <line id="Line_80" data-name="Line 80" x2="10" y2="10" transform="translate(1077.5 749.5)" fill="none" stroke="#fff" stroke-width="1" opacity="0.58"/>
    <line id="Line_26" data-name="Line 26" x2="12" y2="12" transform="translate(920.5 692.5)" fill="none" stroke="#fff" stroke-width="1" opacity="0.58"/>
    <line id="Line_65" data-name="Line 65" x2="12" y2="12" transform="translate(944.5 716.5)" fill="none" stroke="#fff" stroke-width="1" opacity="0.58"/>
    <line id="Line_66" data-name="Line 66" x2="20" y2="20" transform="translate(967.5 739.5)" fill="none" stroke="#fff" stroke-width="1" opacity="0.58"/>
    <line id="Line_32" data-name="Line 32" x2="21" y2="21" transform="translate(1030.5 682.5)" fill="none" stroke="#fff" stroke-width="1" opacity="0.58"/>
    <line id="Line_81" data-name="Line 81" x2="13" y2="13" transform="translate(1061.5 713.5)" fill="none" stroke="#fff" stroke-width="1" opacity="0.58"/>
    <line id="Line_27" data-name="Line 27" x2="12" y2="12" transform="translate(944.5 696.5)" fill="none" stroke="#fff" stroke-width="1" opacity="0.58"/>
    <line id="Line_67" data-name="Line 67" x2="12" y2="12" transform="translate(967.5 719.5)" fill="none" stroke="#fff" stroke-width="1" opacity="0.58"/>
    <line id="Line_68" data-name="Line 68" x2="9" y2="9" transform="translate(992.5 744.5)" fill="none" stroke="#fff" stroke-width="1" opacity="0.58"/>
    <line id="Line_33" data-name="Line 33" x2="12" y2="12" transform="translate(1062.5 694.5)" fill="none" stroke="#fff" stroke-width="1" opacity="0.58"/>
    <line id="Line_82" data-name="Line 82" x2="8" y2="8" transform="translate(1082.5 714.5)" fill="none" stroke="#fff" stroke-width="1" opacity="0.58"/>
    <line id="Line_83" data-name="Line 83" x2="12" y2="12" transform="translate(1105.5 737.5)" fill="none" stroke="#fff" stroke-width="1" opacity="0.58"/>
    <line id="Line_84" data-name="Line 84" x2="11" y2="11" transform="translate(1116.5 748.5)" fill="none" stroke="#fff" stroke-width="1" opacity="0.58"/>
    <line id="Line_22" data-name="Line 22" x2="10" y2="10" transform="translate(894.5 746.5)" fill="none" stroke="#fff" stroke-width="1" opacity="0.58"/>
    <line id="Line_28" data-name="Line 28" x2="6" y2="6" transform="translate(950.5 682.5)" fill="none" stroke="#fff" stroke-width="1" opacity="0.58"/>
    <line id="Line_69" data-name="Line 69" x2="12" y2="12" transform="translate(968.5 700.5)" fill="none" stroke="#fff" stroke-width="1" opacity="0.58"/>
    <line id="Line_70" data-name="Line 70" x2="12" y2="12" transform="translate(992.5 724.5)" fill="none" stroke="#fff" stroke-width="1" opacity="0.58"/>
    <line id="Line_72" data-name="Line 72" x2="13" y2="13" transform="translate(1014.5 746.5)" fill="none" stroke="#fff" stroke-width="1" opacity="0.58"/>
    <line id="Line_34" data-name="Line 34" x2="12" y2="12" transform="translate(1070.5 682.5)" fill="none" stroke="#fff" stroke-width="1" opacity="0.58"/>
    <line id="Line_85" data-name="Line 85" x2="12" y2="12" transform="translate(1126.5 738.5)" fill="none" stroke="#fff" stroke-width="1" opacity="0.58"/>
    <line id="Line_23" data-name="Line 23" x2="13" y2="13" transform="translate(896.5 728.5)" fill="none" stroke="#fff" stroke-width="1" opacity="0.58"/>
    <line id="Line_29" data-name="Line 29" x2="12" y2="12" transform="translate(970.5 682.5)" fill="none" stroke="#fff" stroke-width="1" opacity="0.58"/>
    <line id="Line_71" data-name="Line 71" x2="13" y2="13" transform="translate(992.5 704.5)" fill="none" stroke="#fff" stroke-width="1" opacity="0.58"/>
    <line id="Line_73" data-name="Line 73" x2="13" y2="13" transform="translate(1014.5 726.5)" fill="none" stroke="#fff" stroke-width="1" opacity="0.58"/>
    <line id="Line_74" data-name="Line 74" x2="8" y2="8" transform="translate(1037.5 749.5)" fill="none" stroke="#fff" stroke-width="1" opacity="0.58"/>
    <line id="Line_35" data-name="Line 35" x2="5" y2="5" transform="translate(1090.5 682.5)" fill="none" stroke="#fff" stroke-width="1" opacity="0.58"/>
    <line id="Line_86" data-name="Line 86" x2="31" y2="31" transform="translate(1104.5 696.5)" fill="none" stroke="#fff" stroke-width="1" opacity="0.58"/>
    <line id="Line_24" data-name="Line 24" x2="13" y2="13" transform="translate(896.5 708.5)" fill="none" stroke="#fff" stroke-width="1" opacity="0.58"/>
    <line id="Line_61" data-name="Line 61" x2="13" y2="13" transform="translate(919.5 731.5)" fill="none" stroke="#fff" stroke-width="1" opacity="0.58"/>
    <line id="Line_62" data-name="Line 62" x2="10" y2="10" transform="translate(937.5 749.5)" fill="none" stroke="#fff" stroke-width="1" opacity="0.58"/>
    <line id="Line_30" data-name="Line 30" x2="15" y2="15" transform="translate(990.5 682.5)" fill="none" stroke="#fff" stroke-width="1" opacity="0.58"/>
    <line id="Line_75" data-name="Line 75" x2="13" y2="13" transform="translate(1014.5 706.5)" fill="none" stroke="#fff" stroke-width="1" opacity="0.58"/>
    <line id="Line_76" data-name="Line 76" x2="11" y2="11" transform="translate(1039.5 731.5)" fill="none" stroke="#fff" stroke-width="1" opacity="0.58"/>
    <line id="Line_78" data-name="Line 78" x2="6" y2="6" transform="translate(1061.5 753.5)" fill="none" stroke="#fff" stroke-width="1" opacity="0.58"/>
    <line id="Line_36" data-name="Line 36" x2="10" y2="10" transform="translate(1111.5 683.5)" fill="none" stroke="#fff" stroke-width="1" opacity="0.58"/>
    <line id="Line_87" data-name="Line 87" x2="4" y2="4" transform="translate(1128.5 700.5)" fill="none" stroke="#fff" stroke-width="1" opacity="0.58"/>
  </g>
</svg>
