<svg xmlns="http://www.w3.org/2000/svg" width="716.89" height="85.37" viewBox="0 0 716.89 85.37">
  <g id="Group_8" data-name="Group 8" transform="translate(-884.6 -680.62)">
    <path id="Path_213" data-name="Path 213" d="M1.1,0A49.738,49.738,0,0,0,6.93.22c9.13,0,17.38-3.96,17.38-19.36V-77H12.21v58.74c0,5.94-3.08,7.37-6.93,7.37-1.32,0-2.86,0-4.18-.11ZM35.31-77v58.63C35.31-6.05,41.47.99,53.35.99S71.39-6.05,71.39-18.37V-77H59.95v59.4c0,5.5-2.42,7.48-6.27,7.48s-6.27-1.98-6.27-7.48V-77ZM82.94,0h19.14c12.1,0,18.04-6.71,18.04-19.03V-57.97c0-12.32-5.94-19.03-18.04-19.03H82.94Zm18.92-66c3.85,0,6.16,1.98,6.16,7.48v40.04c0,5.5-2.31,7.48-6.16,7.48H95.04V-66Zm47.41,34.1h5.5v14.19c0,5.5-2.42,7.48-6.27,7.48s-6.27-1.98-6.27-7.48V-59.29c0-5.5,2.42-7.59,6.27-7.59s6.27,2.09,6.27,7.59v8.25h11.44v-7.48c0-12.32-6.16-19.36-18.04-19.36s-18.04,7.04-18.04,19.36v40.04c0,12.32,6.16,19.36,18.04,19.36s18.04-7.04,18.04-19.36V-42.9H149.27ZM189.42-66h20.9V-77h-33V0h33V-11h-20.9V-33.55h16.61v-11H189.42Zm30.14,7.48c0,22,23.65,24.97,23.65,40.81,0,5.5-2.42,7.48-6.27,7.48s-6.27-1.98-6.27-7.48v-5.5H219.23v4.73c0,12.32,6.16,19.36,18.04,19.36s18.04-7.04,18.04-19.36c0-22-23.65-24.97-23.65-40.81,0-5.5,2.2-7.59,6.05-7.59s6.05,2.09,6.05,7.59v3.19H255.2v-2.42c0-12.32-6.05-19.36-17.82-19.36S219.56-70.84,219.56-58.52ZM286-24.53v7.81C286-5.39,290.51.88,299.42.88c5.39,0,9.13-2.42,11.22-6.93A18.355,18.355,0,0,0,311.74,0h12.32c-1.21-2.86-1.32-5.61-1.32-9.35v-25.3h3.19v-11h-3.19v-8.58h-12.1v8.58h-5.28c-4.51,0-7.26-1.98-7.26-8.14v-4.73c0-5.5,2.31-7.48,6.16-7.48H317.9V-77H304.04C291.94-77,286-70.29,286-57.97v1.43c0,8.25,2.64,13.42,8.36,15.84C288.42-38.06,286-32.34,286-24.53Zm12.1,6.82v-7.15c0-7.15,2.42-9.79,7.92-9.79h4.62v17.82c-.22,4.84-2.64,6.71-6.27,6.71C300.52-10.12,298.1-12.21,298.1-17.71Zm55.44-40.81c0,22,23.65,24.97,23.65,40.81,0,5.5-2.42,7.48-6.27,7.48s-6.27-1.98-6.27-7.48v-5.5H353.21v4.73c0,12.32,6.16,19.36,18.04,19.36s18.04-7.04,18.04-19.36c0-22-23.65-24.97-23.65-40.81,0-5.5,2.2-7.59,6.05-7.59s6.05,2.09,6.05,7.59v3.19h11.44v-2.42c0-12.32-6.05-19.36-17.82-19.36S353.54-70.84,353.54-58.52ZM417.34-77H399.52V0h12.1V-28.93h5.72c12.1,0,18.04-6.71,18.04-19.03V-57.97C435.38-70.29,429.44-77,417.34-77Zm0,11c3.85,0,5.94,1.76,5.94,7.26v11.55c0,5.5-2.09,7.26-5.94,7.26h-5.72V-66Zm39.05,0h20.9V-77h-33V0h33V-11h-20.9V-33.55H473v-11H456.39Zm58.52-11H497.2L484.88,0h11.11l2.09-13.97h14.85L515.02,0h12.21Zm-9.46,13.64,5.83,38.94H499.62ZM563.75,0h12.43L559.35-42.68,576.18-77h-12.1L548.24-43.45V-77h-12.1V0h12.1V-23.65l3.74-7.04Zm33.33-66h20.9V-77h-33V0h33V-11h-20.9V-33.55h16.61v-11H597.08Zm69.3,66c-1.21-2.86-1.32-5.61-1.32-9.35V-21.23c0-8.03-1.98-13.86-8.03-16.39,5.39-2.53,7.92-7.7,7.92-15.62v-6.05c0-11.88-5.39-17.71-17.93-17.71H628.76V0h12.1V-31.35h4.18c5.5,0,7.92,2.64,7.92,9.79v12.1c0,6.27.44,7.48,1.1,9.46ZM646.69-66c4.29,0,6.16,2.42,6.16,7.92v7.59c0,6.16-2.75,8.14-7.26,8.14h-4.73V-66Zm28.05,7.48c0,22,23.65,24.97,23.65,40.81,0,5.5-2.42,7.48-6.27,7.48s-6.27-1.98-6.27-7.48v-5.5H674.41v4.73c0,12.32,6.16,19.36,18.04,19.36s18.04-7.04,18.04-19.36c0-22-23.65-24.97-23.65-40.81,0-5.5,2.2-7.59,6.05-7.59s6.05,2.09,6.05,7.59v3.19h11.44v-2.42c0-12.32-6.05-19.36-17.82-19.36S674.74-70.84,674.74-58.52Z" transform="translate(891 765)" fill="#7988e4"/>
    <path id="Path_212" data-name="Path 212" d="M1.1,0A49.738,49.738,0,0,0,6.93.22c9.13,0,17.38-3.96,17.38-19.36V-77H12.21v58.74c0,5.94-3.08,7.37-6.93,7.37-1.32,0-2.86,0-4.18-.11ZM35.31-77v58.63C35.31-6.05,41.47.99,53.35.99S71.39-6.05,71.39-18.37V-77H59.95v59.4c0,5.5-2.42,7.48-6.27,7.48s-6.27-1.98-6.27-7.48V-77ZM82.94,0h19.14c12.1,0,18.04-6.71,18.04-19.03V-57.97c0-12.32-5.94-19.03-18.04-19.03H82.94Zm18.92-66c3.85,0,6.16,1.98,6.16,7.48v40.04c0,5.5-2.31,7.48-6.16,7.48H95.04V-66Zm47.41,34.1h5.5v14.19c0,5.5-2.42,7.48-6.27,7.48s-6.27-1.98-6.27-7.48V-59.29c0-5.5,2.42-7.59,6.27-7.59s6.27,2.09,6.27,7.59v8.25h11.44v-7.48c0-12.32-6.16-19.36-18.04-19.36s-18.04,7.04-18.04,19.36v40.04c0,12.32,6.16,19.36,18.04,19.36s18.04-7.04,18.04-19.36V-42.9H149.27ZM189.42-66h20.9V-77h-33V0h33V-11h-20.9V-33.55h16.61v-11H189.42Zm30.14,7.48c0,22,23.65,24.97,23.65,40.81,0,5.5-2.42,7.48-6.27,7.48s-6.27-1.98-6.27-7.48v-5.5H219.23v4.73c0,12.32,6.16,19.36,18.04,19.36s18.04-7.04,18.04-19.36c0-22-23.65-24.97-23.65-40.81,0-5.5,2.2-7.59,6.05-7.59s6.05,2.09,6.05,7.59v3.19H255.2v-2.42c0-12.32-6.05-19.36-17.82-19.36S219.56-70.84,219.56-58.52ZM286-24.53v7.81C286-5.39,290.51.88,299.42.88c5.39,0,9.13-2.42,11.22-6.93A18.355,18.355,0,0,0,311.74,0h12.32c-1.21-2.86-1.32-5.61-1.32-9.35v-25.3h3.19v-11h-3.19v-8.58h-12.1v8.58h-5.28c-4.51,0-7.26-1.98-7.26-8.14v-4.73c0-5.5,2.31-7.48,6.16-7.48H317.9V-77H304.04C291.94-77,286-70.29,286-57.97v1.43c0,8.25,2.64,13.42,8.36,15.84C288.42-38.06,286-32.34,286-24.53Zm12.1,6.82v-7.15c0-7.15,2.42-9.79,7.92-9.79h4.62v17.82c-.22,4.84-2.64,6.71-6.27,6.71C300.52-10.12,298.1-12.21,298.1-17.71Zm55.44-40.81c0,22,23.65,24.97,23.65,40.81,0,5.5-2.42,7.48-6.27,7.48s-6.27-1.98-6.27-7.48v-5.5H353.21v4.73c0,12.32,6.16,19.36,18.04,19.36s18.04-7.04,18.04-19.36c0-22-23.65-24.97-23.65-40.81,0-5.5,2.2-7.59,6.05-7.59s6.05,2.09,6.05,7.59v3.19h11.44v-2.42c0-12.32-6.05-19.36-17.82-19.36S353.54-70.84,353.54-58.52ZM417.34-77H399.52V0h12.1V-28.93h5.72c12.1,0,18.04-6.71,18.04-19.03V-57.97C435.38-70.29,429.44-77,417.34-77Zm0,11c3.85,0,5.94,1.76,5.94,7.26v11.55c0,5.5-2.09,7.26-5.94,7.26h-5.72V-66Zm39.05,0h20.9V-77h-33V0h33V-11h-20.9V-33.55H473v-11H456.39Zm58.52-11H497.2L484.88,0h11.11l2.09-13.97h14.85L515.02,0h12.21Zm-9.46,13.64,5.83,38.94H499.62ZM563.75,0h12.43L559.35-42.68,576.18-77h-12.1L548.24-43.45V-77h-12.1V0h12.1V-23.65l3.74-7.04Zm33.33-66h20.9V-77h-33V0h33V-11h-20.9V-33.55h16.61v-11H597.08Zm69.3,66c-1.21-2.86-1.32-5.61-1.32-9.35V-21.23c0-8.03-1.98-13.86-8.03-16.39,5.39-2.53,7.92-7.7,7.92-15.62v-6.05c0-11.88-5.39-17.71-17.93-17.71H628.76V0h12.1V-31.35h4.18c5.5,0,7.92,2.64,7.92,9.79v12.1c0,6.27.44,7.48,1.1,9.46ZM646.69-66c4.29,0,6.16,2.42,6.16,7.92v7.59c0,6.16-2.75,8.14-7.26,8.14h-4.73V-66Zm28.05,7.48c0,22,23.65,24.97,23.65,40.81,0,5.5-2.42,7.48-6.27,7.48s-6.27-1.98-6.27-7.48v-5.5H674.41v4.73c0,12.32,6.16,19.36,18.04,19.36s18.04-7.04,18.04-19.36c0-22-23.65-24.97-23.65-40.81,0-5.5,2.2-7.59,6.05-7.59s6.05,2.09,6.05,7.59v3.19h11.44v-2.42c0-12.32-6.05-19.36-17.82-19.36S674.74-70.84,674.74-58.52Z" transform="translate(885 760)" fill="#ef034f" stroke="#fff" stroke-width="3"/>
    <path id="Path_211" data-name="Path 211" d="M0,0,13,13" transform="translate(896.5 688.5)" fill="none" stroke="#fff" stroke-width="1" opacity="0.58"/>
    <path id="Path_210" data-name="Path 210" d="M0,0,14,14" transform="translate(919.5 711.5)" fill="none" stroke="#fff" stroke-width="1" opacity="0.58"/>
    <path id="Path_209" data-name="Path 209" d="M0,0,11,11" transform="translate(944.5 736.5)" fill="none" stroke="#fff" stroke-width="1" opacity="0.58"/>
    <path id="Path_208" data-name="Path 208" d="M0,0,9,9" transform="translate(1018.5 690.5)" fill="none" stroke="#fff" stroke-width="1" opacity="0.58"/>
    <path id="Path_207" data-name="Path 207" d="M0,0,7,7" transform="translate(1044.5 716.5)" fill="none" stroke="#fff" stroke-width="1" opacity="0.58"/>
    <path id="Path_206" data-name="Path 206" d="M0,0,12,12" transform="translate(1062.5 734.5)" fill="none" stroke="#fff" stroke-width="1" opacity="0.58"/>
    <path id="Path_205" data-name="Path 205" d="M0,0,10,10" transform="translate(1077.5 749.5)" fill="none" stroke="#fff" stroke-width="1" opacity="0.58"/>
    <path id="Path_204" data-name="Path 204" d="M0,0,11,11" transform="translate(1172.5 724.5)" fill="none" stroke="#fff" stroke-width="1" opacity="0.58"/>
    <path id="Path_203" data-name="Path 203" d="M0,0,14,14" transform="translate(1194.5 746.5)" fill="none" stroke="#fff" stroke-width="1" opacity="0.58"/>
    <path id="Path_202" data-name="Path 202" d="M0,0,21,21" transform="translate(1250.5 682.5)" fill="none" stroke="#fff" stroke-width="1" opacity="0.58"/>
    <path id="Path_201" data-name="Path 201" d="M0,0,15,15" transform="translate(1283.5 715.5)" fill="none" stroke="#fff" stroke-width="1" opacity="0.58"/>
    <path id="Path_200" data-name="Path 200" d="M0,0,25,25" transform="translate(1380.5 692.5)" fill="none" stroke="#fff" stroke-width="1" opacity="0.58"/>
    <path id="Path_199" data-name="Path 199" d="M0,0,12,12" transform="translate(1420.5 732.5)" fill="none" stroke="#fff" stroke-width="1" opacity="0.58"/>
    <path id="Path_198" data-name="Path 198" d="M0,0,12,12" transform="translate(1490.5 682.5)" fill="none" stroke="#fff" stroke-width="1" opacity="0.58"/>
    <path id="Path_197" data-name="Path 197" d="M0,0,36,36" transform="translate(1513.5 705.5)" fill="none" stroke="#fff" stroke-width="1" opacity="0.58"/>
    <path id="Path_196" data-name="Path 196" d="M0,0,12,12" transform="translate(920.5 692.5)" fill="none" stroke="#fff" stroke-width="1" opacity="0.58"/>
    <path id="Path_195" data-name="Path 195" d="M0,0,12,12" transform="translate(944.5 716.5)" fill="none" stroke="#fff" stroke-width="1" opacity="0.58"/>
    <path id="Path_194" data-name="Path 194" d="M0,0,20,20" transform="translate(967.5 739.5)" fill="none" stroke="#fff" stroke-width="1" opacity="0.58"/>
    <path id="Path_193" data-name="Path 193" d="M0,0,21,21" transform="translate(1030.5 682.5)" fill="none" stroke="#fff" stroke-width="1" opacity="0.58"/>
    <path id="Path_192" data-name="Path 192" d="M0,0,13,13" transform="translate(1061.5 713.5)" fill="none" stroke="#fff" stroke-width="1" opacity="0.58"/>
    <path id="Path_191" data-name="Path 191" d="M0,0,37,37" transform="translate(1170.5 702.5)" fill="none" stroke="#fff" stroke-width="1" opacity="0.58"/>
    <path id="Path_190" data-name="Path 190" d="M0,0,31,31" transform="translate(1283.5 695.5)" fill="none" stroke="#fff" stroke-width="1" opacity="0.58"/>
    <path id="Path_189" data-name="Path 189" d="M0,0,18,18" transform="translate(1330.5 742.5)" fill="none" stroke="#fff" stroke-width="1" opacity="0.58"/>
    <path id="Path_188" data-name="Path 188" d="M0,0,12,12" transform="translate(1390.5 682.5)" fill="none" stroke="#fff" stroke-width="1" opacity="0.58"/>
    <path id="Path_187" data-name="Path 187" d="M0,0,35,35" transform="translate(1420.5 712.5)" fill="none" stroke="#fff" stroke-width="1" opacity="0.58"/>
    <path id="Path_186" data-name="Path 186" d="M0,0,13,13" transform="translate(1513.5 685.5)" fill="none" stroke="#fff" stroke-width="1" opacity="0.58"/>
    <path id="Path_185" data-name="Path 185" d="M0,0,9,9" transform="translate(1537.5 709.5)" fill="none" stroke="#fff" stroke-width="1" opacity="0.58"/>
    <path id="Path_184" data-name="Path 184" d="M0,0,6,6" transform="translate(1565.5 737.5)" fill="none" stroke="#fff" stroke-width="1" opacity="0.58"/>
    <path id="Path_183" data-name="Path 183" d="M0,0,10,10" transform="translate(1577.5 749.5)" fill="none" stroke="#fff" stroke-width="1" opacity="0.58"/>
    <path id="Path_182" data-name="Path 182" d="M0,0,12,12" transform="translate(944.5 696.5)" fill="none" stroke="#fff" stroke-width="1" opacity="0.58"/>
    <path id="Path_181" data-name="Path 181" d="M0,0,12,12" transform="translate(967.5 719.5)" fill="none" stroke="#fff" stroke-width="1" opacity="0.58"/>
    <path id="Path_180" data-name="Path 180" d="M0,0,9,9" transform="translate(992.5 744.5)" fill="none" stroke="#fff" stroke-width="1" opacity="0.58"/>
    <path id="Path_179" data-name="Path 179" d="M0,0,12,12" transform="translate(1062.5 694.5)" fill="none" stroke="#fff" stroke-width="1" opacity="0.58"/>
    <path id="Path_178" data-name="Path 178" d="M0,0,8,8" transform="translate(1082.5 714.5)" fill="none" stroke="#fff" stroke-width="1" opacity="0.58"/>
    <path id="Path_177" data-name="Path 177" d="M0,0,12,12" transform="translate(1105.5 737.5)" fill="none" stroke="#fff" stroke-width="1" opacity="0.58"/>
    <path id="Path_176" data-name="Path 176" d="M0,0,11,11" transform="translate(1116.5 748.5)" fill="none" stroke="#fff" stroke-width="1" opacity="0.58"/>
    <path id="Path_175" data-name="Path 175" d="M0,0,9,9" transform="translate(1175.5 687.5)" fill="none" stroke="#fff" stroke-width="1" opacity="0.58"/>
    <path id="Path_174" data-name="Path 174" d="M0,0,16,16" transform="translate(1194.5 706.5)" fill="none" stroke="#fff" stroke-width="1" opacity="0.58"/>
    <path id="Path_173" data-name="Path 173" d="M0,0,12,12" transform="translate(1290.5 682.5)" fill="none" stroke="#fff" stroke-width="1" opacity="0.58"/>
    <path id="Path_172" data-name="Path 172" d="M0,0,13,13" transform="translate(1307.5 699.5)" fill="none" stroke="#fff" stroke-width="1" opacity="0.58"/>
    <path id="Path_171" data-name="Path 171" d="M0,0,11,11" transform="translate(1329.5 721.5)" fill="none" stroke="#fff" stroke-width="1" opacity="0.58"/>
    <path id="Path_170" data-name="Path 170" d="M0,0,13,13" transform="translate(1420.5 692.5)" fill="none" stroke="#fff" stroke-width="1" opacity="0.58"/>
    <path id="Path_169" data-name="Path 169" d="M0,0,9,9" transform="translate(1436.5 708.5)" fill="none" stroke="#fff" stroke-width="1" opacity="0.58"/>
    <path id="Path_168" data-name="Path 168" d="M0,0,19,19" transform="translate(1469.5 741.5)" fill="none" stroke="#fff" stroke-width="1" opacity="0.58"/>
    <path id="Path_167" data-name="Path 167" d="M0,0,19,19" transform="translate(1531.5 683.5)" fill="none" stroke="#fff" stroke-width="1" opacity="0.58"/>
    <path id="Path_166" data-name="Path 166" d="M0,0,32,32" transform="translate(1562.5 714.5)" fill="none" stroke="#fff" stroke-width="1" opacity="0.58"/>
    <path id="Path_165" data-name="Path 165" d="M0,0,10,10" transform="translate(894.5 746.5)" fill="none" stroke="#fff" stroke-width="1" opacity="0.58"/>
    <path id="Path_164" data-name="Path 164" d="M0,0,6,6" transform="translate(950.5 682.5)" fill="none" stroke="#fff" stroke-width="1" opacity="0.58"/>
    <path id="Path_163" data-name="Path 163" d="M0,0,12,12" transform="translate(968.5 700.5)" fill="none" stroke="#fff" stroke-width="1" opacity="0.58"/>
    <path id="Path_162" data-name="Path 162" d="M0,0,12,12" transform="translate(992.5 724.5)" fill="none" stroke="#fff" stroke-width="1" opacity="0.58"/>
    <path id="Path_161" data-name="Path 161" d="M0,0,13,13" transform="translate(1014.5 746.5)" fill="none" stroke="#fff" stroke-width="1" opacity="0.58"/>
    <path id="Path_160" data-name="Path 160" d="M0,0,12,12" transform="translate(1070.5 682.5)" fill="none" stroke="#fff" stroke-width="1" opacity="0.58"/>
    <path id="Path_159" data-name="Path 159" d="M0,0,12,12" transform="translate(1126.5 738.5)" fill="none" stroke="#fff" stroke-width="1" opacity="0.58"/>
    <path id="Path_158" data-name="Path 158" d="M0,0,12,12" transform="translate(1190.5 682.5)" fill="none" stroke="#fff" stroke-width="1" opacity="0.58"/>
    <path id="Path_157" data-name="Path 157" d="M0,0,6,6" transform="translate(1244.5 736.5)" fill="none" stroke="#fff" stroke-width="1" opacity="0.58"/>
    <path id="Path_156" data-name="Path 156" d="M0,0,9,9" transform="translate(1257.5 749.5)" fill="none" stroke="#fff" stroke-width="1" opacity="0.58"/>
    <path id="Path_155" data-name="Path 155" d="M0,0,15,15" transform="translate(1328.5 700.5)" fill="none" stroke="#fff" stroke-width="1" opacity="0.58"/>
    <path id="Path_154" data-name="Path 154" d="M0,0,11,11" transform="translate(1343.5 715.5)" fill="none" stroke="#fff" stroke-width="1" opacity="0.58"/>
    <path id="Path_153" data-name="Path 153" d="M0,0,9,9" transform="translate(1372.5 744.5)" fill="none" stroke="#fff" stroke-width="1" opacity="0.58"/>
    <path id="Path_152" data-name="Path 152" d="M0,0,9,9" transform="translate(1442.5 694.5)" fill="none" stroke="#fff" stroke-width="1" opacity="0.58"/>
    <path id="Path_151" data-name="Path 151" d="M0,0,12,12" transform="translate(1469.5 721.5)" fill="none" stroke="#fff" stroke-width="1" opacity="0.58"/>
    <path id="Path_150" data-name="Path 150" d="M0,0,6,6" transform="translate(1496.5 748.5)" fill="none" stroke="#fff" stroke-width="1" opacity="0.58"/>
    <path id="Path_149" data-name="Path 149" d="M0,0,11,11" transform="translate(1561.5 693.5)" fill="none" stroke="#fff" stroke-width="1" opacity="0.58"/>
    <path id="Path_148" data-name="Path 148" d="M0,0,13,13" transform="translate(896.5 728.5)" fill="none" stroke="#fff" stroke-width="1" opacity="0.58"/>
    <path id="Path_147" data-name="Path 147" d="M0,0,12,12" transform="translate(970.5 682.5)" fill="none" stroke="#fff" stroke-width="1" opacity="0.58"/>
    <path id="Path_146" data-name="Path 146" d="M0,0,13,13" transform="translate(992.5 704.5)" fill="none" stroke="#fff" stroke-width="1" opacity="0.58"/>
    <path id="Path_145" data-name="Path 145" d="M0,0,13,13" transform="translate(1014.5 726.5)" fill="none" stroke="#fff" stroke-width="1" opacity="0.58"/>
    <path id="Path_144" data-name="Path 144" d="M0,0,8,8" transform="translate(1037.5 749.5)" fill="none" stroke="#fff" stroke-width="1" opacity="0.58"/>
    <path id="Path_143" data-name="Path 143" d="M0,0,5,5" transform="translate(1090.5 682.5)" fill="none" stroke="#fff" stroke-width="1" opacity="0.58"/>
    <path id="Path_142" data-name="Path 142" d="M0,0,31,31" transform="translate(1104.5 696.5)" fill="none" stroke="#fff" stroke-width="1" opacity="0.58"/>
    <path id="Path_141" data-name="Path 141" d="M0,0,33,33" transform="translate(1240.5 712.5)" fill="none" stroke="#fff" stroke-width="1" opacity="0.58"/>
    <path id="Path_140" data-name="Path 140" d="M0,0,3,3" transform="translate(1284.5 756.5)" fill="none" stroke="#fff" stroke-width="1" opacity="0.58"/>
    <path id="Path_139" data-name="Path 139" d="M0,0,11,11" transform="translate(1331.5 683.5)" fill="none" stroke="#fff" stroke-width="1" opacity="0.58"/>
    <path id="Path_138" data-name="Path 138" d="M0,0,10,10" transform="translate(1374.5 726.5)" fill="none" stroke="#fff" stroke-width="1" opacity="0.58"/>
    <path id="Path_137" data-name="Path 137" d="M0,0,10,10" transform="translate(1383.5 735.5)" fill="none" stroke="#fff" stroke-width="1" opacity="0.58"/>
    <path id="Path_136" data-name="Path 136" d="M0,0,11,11" transform="translate(1397.5 749.5)" fill="none" stroke="#fff" stroke-width="1" opacity="0.58"/>
    <path id="Path_135" data-name="Path 135" d="M0,0,7,7" transform="translate(1451.5 683.5)" fill="none" stroke="#fff" stroke-width="1" opacity="0.58"/>
    <path id="Path_134" data-name="Path 134" d="M0,0,25,25" transform="translate(1469.5 701.5)" fill="none" stroke="#fff" stroke-width="1" opacity="0.58"/>
    <path id="Path_133" data-name="Path 133" d="M0,0,12,12" transform="translate(1513.5 745.5)" fill="none" stroke="#fff" stroke-width="1" opacity="0.58"/>
    <path id="Path_132" data-name="Path 132" d="M0,0,22,22" transform="translate(1570.5 682.5)" fill="none" stroke="#fff" stroke-width="1" opacity="0.58"/>
    <path id="Path_131" data-name="Path 131" d="M0,0,13,13" transform="translate(896.5 708.5)" fill="none" stroke="#fff" stroke-width="1" opacity="0.58"/>
    <path id="Path_130" data-name="Path 130" d="M0,0,13,13" transform="translate(919.5 731.5)" fill="none" stroke="#fff" stroke-width="1" opacity="0.58"/>
    <path id="Path_129" data-name="Path 129" d="M0,0,10,10" transform="translate(937.5 749.5)" fill="none" stroke="#fff" stroke-width="1" opacity="0.58"/>
    <path id="Path_128" data-name="Path 128" d="M0,0,15,15" transform="translate(990.5 682.5)" fill="none" stroke="#fff" stroke-width="1" opacity="0.58"/>
    <path id="Path_127" data-name="Path 127" d="M0,0,13,13" transform="translate(1014.5 706.5)" fill="none" stroke="#fff" stroke-width="1" opacity="0.58"/>
    <path id="Path_126" data-name="Path 126" d="M0,0,11,11" transform="translate(1039.5 731.5)" fill="none" stroke="#fff" stroke-width="1" opacity="0.58"/>
    <path id="Path_125" data-name="Path 125" d="M0,0,6,6" transform="translate(1061.5 753.5)" fill="none" stroke="#fff" stroke-width="1" opacity="0.58"/>
    <path id="Path_124" data-name="Path 124" d="M0,0,10,10" transform="translate(1111.5 683.5)" fill="none" stroke="#fff" stroke-width="1" opacity="0.58"/>
    <path id="Path_123" data-name="Path 123" d="M0,0,4,4" transform="translate(1128.5 700.5)" fill="none" stroke="#fff" stroke-width="1" opacity="0.58"/>
    <path id="Path_122" data-name="Path 122" d="M0,0,18,18" transform="translate(1170.5 742.5)" fill="none" stroke="#fff" stroke-width="1" opacity="0.58"/>
    <path id="Path_121" data-name="Path 121" d="M0,0,12,12" transform="translate(1239.5 691.5)" fill="none" stroke="#fff" stroke-width="1" opacity="0.58"/>
    <path id="Path_120" data-name="Path 120" d="M0,0,12,12" transform="translate(1284.5 736.5)" fill="none" stroke="#fff" stroke-width="1" opacity="0.58"/>
    <path id="Path_119" data-name="Path 119" d="M0,0,12,12" transform="translate(1350.5 682.5)" fill="none" stroke="#fff" stroke-width="1" opacity="0.58"/>
    <path id="Path_118" data-name="Path 118" d="M0,0,9,9" transform="translate(1377.5 709.5)" fill="none" stroke="#fff" stroke-width="1" opacity="0.58"/>
    <path id="Path_117" data-name="Path 117" d="M0,0,15,15" transform="translate(1394.5 726.5)" fill="none" stroke="#fff" stroke-width="1" opacity="0.58"/>
    <path id="Path_116" data-name="Path 116" d="M0,0,7,7" transform="translate(1420.5 752.5)" fill="none" stroke="#fff" stroke-width="1" opacity="0.58"/>
    <path id="Path_115" data-name="Path 115" d="M0,0,11,11" transform="translate(1470.5 682.5)" fill="none" stroke="#fff" stroke-width="1" opacity="0.58"/>
    <path id="Path_114" data-name="Path 114" d="M0,0,12,12" transform="translate(1513.5 725.5)" fill="none" stroke="#fff" stroke-width="1" opacity="0.58"/>
    <path id="Path_113" data-name="Path 113" d="M0,0,11,11" transform="translate(1537.5 749.5)" fill="none" stroke="#fff" stroke-width="1" opacity="0.58"/>
  </g>
</svg>
