<svg xmlns="http://www.w3.org/2000/svg" height="96" width="521.573"><path d="M511.827 19.014c-7.267-9.296-17.934-15.18-29.73-15.18-22.813 0-39.504 21.199-39.504 44.165 0 16.012 10.626 27.994 22.446 27.994 1.104 0 2.2-.1 3.28-.3-7.916-5.773-12.982-16.289-12.982-27.694 0-18.158 12.284-32.308 26.76-32.308 15.788 0 26.767 15.679 26.767 32.31-.041 12.282-4.42 24.494-12.125 33.505-6.726 7.864-15.436 12.852-25.014 14.436 0 0 .799.059 1.843.059 26.51 0 47.999-21.492 47.999-48.002a47.79 47.79 0 00-9.74-28.985zm-7.286 28.987c0-16.012-10.625-27.994-22.444-27.994-1.105 0-2.2.1-3.281.3 7.917 5.774 12.981 16.29 12.981 27.694 0 18.158-12.282 32.308-26.758 32.308-15.79 0-26.767-15.678-26.767-32.31.04-12.282 4.42-24.494 12.124-33.504C457.123 6.63 465.833 1.642 475.409.058c0 0-.797-.058-1.841-.058-26.51 0-48 21.49-48 48 0 10.89 3.63 20.931 9.741 28.986 7.266 9.296 17.934 15.181 29.73 15.181 22.813 0 39.502-21.2 39.502-44.166M282.797 58.18l4.858-12.103 4.858 12.103zm3.468-28.082l-18.022 42.439 8.79.001 2.95-7.349h15.344l2.949 7.349h8.792l-18.024-42.44zM190.86 48.604l-4.738-2.085c-1.769-.8-3.021-1.526-3.757-2.18-.737-.652-1.104-1.525-1.104-2.62 0-1.305.493-2.305 1.481-3 .99-.694 2.222-1.041 3.695-1.041 3.159 0 5.81 1.6 7.959 4.8l5.81-4.485a15.09 15.09 0 00-5.462-5.748c-2.338-1.43-5.107-2.147-8.307-2.147-3.999 0-7.304 1.085-9.915 3.252-2.61 2.169-3.914 5.02-3.914 8.56 0 2.736.873 5.05 2.618 6.946 1.75 1.893 4.243 3.578 7.486 5.052l4.485 2.02c1.347.633 2.325 1.117 2.936 1.453.61.337 1.156.833 1.641 1.484.484.652.727 1.401.727 2.243 0 1.432-.527 2.557-1.579 3.378-1.052.822-2.506 1.233-4.358 1.233-3.915 0-7.326-2.022-10.231-6.065l-5.873 4.422c1.6 2.821 3.8 5.064 6.6 6.725 2.798 1.664 5.968 2.495 9.504 2.495 4.253 0 7.746-1.137 10.484-3.41 2.736-2.273 4.105-5.306 4.105-9.094 0-2.822-.843-5.168-2.525-7.041-1.686-1.876-4.274-3.59-7.768-5.147zm-43.81-17.747v33.158a8.525 8.525 0 008.526 8.525V39.382a8.525 8.525 0 00-8.526-8.525zM392.36 53.75c-1.684-1.872-4.271-3.589-7.764-5.144l-4.735-2.085c-1.768-.8-3.02-1.525-3.759-2.177-.736-.652-1.104-1.527-1.104-2.621 0-1.304.495-2.305 1.484-2.998.99-.695 2.222-1.041 3.694-1.041 3.156 0 5.808 1.599 7.954 4.797l5.808-4.482a15.079 15.079 0 00-5.46-5.745c-2.336-1.432-5.104-2.147-8.302-2.147-4 0-7.303 1.084-9.914 3.252-2.609 2.166-3.913 5.018-3.913 8.555 0 2.734.873 5.05 2.621 6.944 1.747 1.892 4.24 3.576 7.48 5.05l4.483 2.019c1.347.634 2.327 1.116 2.936 1.453.61.338 1.157.832 1.641 1.484.484.653.726 1.399.726 2.242 0 1.43-.526 2.557-1.58 3.377-1.051.82-2.503 1.23-4.355 1.23-3.915 0-7.321-2.02-10.227-6.06l-5.87 4.42c1.598 2.82 3.797 5.06 6.596 6.723 2.8 1.662 5.966 2.495 9.501 2.495 4.25 0 7.744-1.137 10.481-3.412 2.736-2.272 4.103-5.302 4.103-9.088 0-2.822-.843-5.169-2.525-7.041zm-50.276 10.07c-1.051.926-2.504 1.387-4.356 1.387h-9.723l-.003-10.479h9.726c1.852 0 3.305.474 4.356 1.42 1.052.948 1.576 2.22 1.576 3.82 0 1.641-.524 2.925-1.576 3.851zm-14.079-25.632h8.41c1.851 0 3.303.463 4.355 1.389 1.052.925 1.578 2.209 1.578 3.85 0 1.6-.526 2.875-1.578 3.82-1.052.947-2.504 1.42-4.354 1.42H328zm19.167 13.03c.614-.521 1.18-1.083 1.646-1.73 1.284-1.767 1.928-3.892 1.928-6.375 0-3.62-1.273-6.567-3.82-8.839-2.548-2.272-5.84-3.41-9.881-3.41h-17.247v41.669h18.56c4.04 0 7.334-1.137 9.88-3.41 2.547-2.274 3.82-5.22 3.82-8.838 0-2.483-.64-4.61-1.926-6.377-.779-1.076-1.783-1.956-2.96-2.69zM238.724 30.864H230.2v41.669h19.065a7.704 7.704 0 007.704-7.703h-18.245zM31.734 61.55c-2.547 2.568-5.736 3.852-9.568 3.852-3.914 0-7.125-1.274-9.63-3.82-2.505-2.549-3.758-5.843-3.758-9.886 0-3.998 1.264-7.284 3.79-9.852 2.525-2.568 5.725-3.853 9.598-3.853 3.832 0 7.02 1.285 9.569 3.853 2.547 2.568 3.82 5.854 3.82 9.852 0 4.001-1.273 7.285-3.82 9.854zm-9.63-31.454c-6.147 0-11.369 2.076-15.662 6.223C2.145 40.467 0 45.593 0 51.697c0 6.106 2.145 11.233 6.442 15.38 4.293 4.148 9.515 6.22 15.661 6.22 6.148 0 11.39-2.072 15.727-6.22 4.336-4.147 6.505-9.274 6.505-15.38 0-6.104-2.17-11.23-6.505-15.377-4.337-4.147-9.58-6.223-15.727-6.223zm98.864 18.507l-4.736-2.085c-1.77-.8-3.022-1.526-3.759-2.18-.737-.652-1.104-1.525-1.104-2.62 0-1.305.494-2.305 1.483-3 .99-.694 2.221-1.041 3.695-1.041 3.158 0 5.81 1.6 7.957 4.8l5.81-4.485a15.076 15.076 0 00-5.462-5.748c-2.337-1.43-5.106-2.147-8.305-2.147-4 0-7.305 1.085-9.914 3.252-2.613 2.169-3.917 5.02-3.917 8.56 0 2.736.874 5.05 2.621 6.946 1.748 1.893 4.242 3.578 7.484 5.052l4.485 2.02c1.347.633 2.325 1.117 2.936 1.453.61.337 1.156.833 1.643 1.484.483.652.724 1.401.724 2.243 0 1.432-.526 2.557-1.578 3.378-1.052.822-2.504 1.233-4.358 1.233-3.915 0-7.325-2.022-10.231-6.065l-5.873 4.422c1.6 2.821 3.8 5.064 6.6 6.725 2.8 1.664 5.967 2.495 9.504 2.495 4.254 0 7.746-1.137 10.484-3.41 2.736-2.273 4.105-5.306 4.105-9.094 0-2.822-.841-5.168-2.526-7.041-1.684-1.876-4.273-3.59-7.768-5.147zM66.283 58.18l4.858-12.103L76 58.18zm3.469-28.082L51.728 72.537l8.79.001 2.95-7.349h15.345l2.95 7.349h8.791L72.53 30.098h-2.778" fill="#f0421e"/></svg>