<svg data-name="Layer 1" xmlns="http://www.w3.org/2000/svg" viewBox="0 0 1451.59 772.43"><path d="M1405 679.07a46.64 46.64 0 00-46.64 46.63v.1a46.64 46.64 0 1046.64-46.73zM889.85 114.75A46.64 46.64 0 00914 24.65l-.64-.17a46.64 46.64 0 00-23.49 90.27zM1042 177.83l.37.21a46.3 46.3 0 10-.37-.21zm131.17 100.82a46.64 46.64 0 1066-66l-.13-.12a46.63 46.63 0 00-66 65.95zm181.28 84.19a46.63 46.63 0 10-80.81 46.57l.21.37a46.64 46.64 0 0080.6-46.94zm39.65 232.26A46.64 46.64 0 001427 538v-.17a46.64 46.64 0 10-90.08 24.2v.17a46.58 46.58 0 0057.14 32.94zm-154.89 83.97a46.64 46.64 0 00-46.64 46.63v.1a46.64 46.64 0 1046.64-46.73zm-84.34-313.22a46.64 46.64 0 00-72 59.34l.72.87a46.64 46.64 0 0071.24-60.21zM1023 304.68a46.64 46.64 0 00-16.79-63.79l-.66-.38a46.64 46.64 0 1017.45 64.17zM1224.55 594a46.72 46.72 0 10-60.24-28.56c.11.32.23.65.35 1a46.58 46.58 0 0059.89 27.56zM682.8 212a46.83 46.83 0 10-38.08 54h.29a46.6 46.6 0 0037.79-54zm390.66 467.07a46.64 46.64 0 00-46.64 46.63v.1a46.64 46.64 0 1046.64-46.73zm-23.28-86.61a46.63 46.63 0 0017.24-63.66l-.38-.65a46.64 46.64 0 10-16.86 64.31z" fill="#00e290"/><path d="M726 93.27h.18a46.64 46.64 0 100-93.27H726a46.64 46.64 0 100 93.27zm-175.84 22.94a46.39 46.39 0 0011.66-1.49l.64-.17a46.56 46.56 0 10-12.3 1.66zM386.45 184a46.38 46.38 0 0023.24-6.24l.37-.21a46.62 46.62 0 10-23.61 6.45zM245.78 292a46.48 46.48 0 0033-13.66l.12-.12a46.64 46.64 0 10-65.95-66l-.13.13a46.64 46.64 0 0033 79.61zM81.87 504.36a46.74 46.74 0 1032.85 57.48l.09-.34a46.63 46.63 0 00-32.94-57.14zm96.13-95l.21-.37a46.08 46.08 0 10-.21.37zM46.64 679.11a46.66 46.66 0 1046.63 46.69v-.1a46.6 46.6 0 00-46.63-46.59zm321.67-253.46a46.64 46.64 0 00-71.13-60.35l-.44.54a46.64 46.64 0 0071.57 59.81zm454.98-251.44l-.29-.05a46.64 46.64 0 00-16 91.9h.07a47.3 47.3 0 008.16.72 46.65 46.65 0 008-92.58zm-313.66 83.22a46.79 46.79 0 10-17.73 64.32l1-.54a46.63 46.63 0 0016.73-63.78zM259.52 506a46.63 46.63 0 00-59.9 27.59c-.12.33-.24.65-.35 1A46.64 46.64 0 10259.52 506zm-47.13 173.11A46.66 46.66 0 10259 725.8v-.1a46.6 46.6 0 00-46.61-46.59zM726 331.5h-.19a46.64 46.64 0 100 93.27h.19a46.64 46.64 0 000-93.27zm197.05 52.82a46.64 46.64 0 00-47.17 80.47l.65.38a46.64 46.64 0 0046.52-80.85zm-394.15-.21l-.36.21A46.64 46.64 0 10575.29 465a46.64 46.64 0 00-46.42-80.91zM448 511.3a46.74 46.74 0 1016.87 64.29l.38-.65A46.62 46.62 0 00448 511.3zm-69.86 167.81a46.66 46.66 0 1046.63 46.69v-.1a46.6 46.6 0 00-46.63-46.59z" fill="#5700ff"/></svg>