<svg id="round-add-button" xmlns="http://www.w3.org/2000/svg" width="79.99" height="79.99" viewBox="0 0 79.99 79.99">
  <g id="Group_32" data-name="Group 32">
    <path id="Path_265" data-name="Path 265" d="M39.994,0a39.995,39.995,0,1,0,40,39.995A40.04,40.04,0,0,0,39.994,0Zm0,74.745a34.75,34.75,0,1,1,34.75-34.75A34.789,34.789,0,0,1,39.994,74.745Z" fill="#fff"/>
    <path id="Path_266" data-name="Path 266" d="M141.818,123.3H128.548V110.028a2.623,2.623,0,1,0-5.245,0V123.3H110.032a2.623,2.623,0,0,0,0,5.245H123.3v13.271a2.623,2.623,0,0,0,5.245,0V128.544h13.272a2.623,2.623,0,0,0,0-5.246Z" transform="translate(-85.93 -85.927)" fill="#fff"/>
  </g>
</svg>
