<svg xmlns="http://www.w3.org/2000/svg" width="269" height="269" viewBox="0 0 269 269">
  <g id="Group_4" data-name="Group 4" transform="translate(-270 -167)">
    <path id="Path_29" data-name="Path 29" d="M134.5,0A134.5,134.5,0,1,1,0,134.5,134.5,134.5,0,0,1,134.5,0Z" transform="translate(270 167)" fill="#fff"/>
    <path id="Path_1" data-name="Path 1" d="M149.327,150.438H8V15H55.109v5.889h47.109V15h47.109Z" transform="translate(327.944 236.304)" fill="#aabece"/>
    <path id="Path_2" data-name="Path 2" d="M14,15H120V150.438H14Z" transform="translate(339.61 236.304)" fill="#f0f0d9"/>
    <path id="Path_3" data-name="Path 3" d="M19,44H48.443v5.889H19Z" transform="translate(349.332 292.689)" fill="#394d5c"/>
    <path id="Path_4" data-name="Path 4" d="M19,48H36.666v5.889H19Z" transform="translate(349.332 300.467)" fill="#394d5c"/>
    <path id="Path_5" data-name="Path 5" d="M31,44H72.22v5.889H31Z" transform="translate(372.663 292.689)" fill="#394d5c"/>
    <path id="Path_6" data-name="Path 6" d="M19,52H69.053v5.889H19Z" transform="translate(349.332 308.244)" fill="#394d5c"/>
    <path id="Path_7" data-name="Path 7" d="M27,48H80v5.889H27Z" transform="translate(364.886 300.467)" fill="#394d5c"/>
    <path id="Path_8" data-name="Path 8" d="M38,52H58.61v5.889H38Z" transform="translate(386.274 308.244)" fill="#394d5c"/>
    <path id="Path_9" data-name="Path 9" d="M19,56H95.552v5.889H19Z" transform="translate(349.332 316.021)" fill="#394d5c"/>
    <path id="Path_10" data-name="Path 10" d="M30,33H41.777V44.777H30Z" transform="translate(370.719 271.302)" fill="#7d8d9c"/>
    <path id="Path_11" data-name="Path 11" d="M40.773,40.47,31.3,28.619,21.818,40.467l-4.6-3.68L29,22.065a3.05,3.05,0,0,1,4.6,0L45.373,36.786Z" transform="translate(345.869 248.006)" fill="#7d8d9c"/>
    <path id="Path_12" data-name="Path 12" d="M60.774,40.47,51.3,28.619,41.818,40.467l-4.6-3.68L49,22.065a3.05,3.05,0,0,1,4.6,0L65.373,36.786Z" transform="translate(384.755 248.006)" fill="#7d8d9c"/>
    <path id="Path_13" data-name="Path 13" d="M20,37H90.663V48.777H20Z" transform="translate(351.276 279.079)" fill="#5a6470"/>
    <path id="Path_14" data-name="Path 14" d="M60.695,32.463a17.666,17.666,0,1,0-26.281,0H24V44.24H71.109V32.463Zm-13.14-5.889a5.889,5.889,0,1,1,5.889-5.889A5.889,5.889,0,0,1,47.554,26.574Z" transform="translate(359.053 212.953)" fill="#aabece"/>
    <path id="Path_15" data-name="Path 15" d="M18,27H41.554v5.889a11.777,11.777,0,0,1-23.554,0Z" transform="translate(347.387 259.636)" fill="#ad6327"/>
    <path id="Path_16" data-name="Path 16" d="M38,27H61.555v5.889a11.777,11.777,0,0,1-23.554,0Z" transform="translate(386.274 259.636)" fill="#ad6327"/>
    <path id="Path_17" data-name="Path 17" d="M31,21h5.889V56.332H31Z" transform="translate(372.663 247.97)" fill="#aabece"/>
    <path id="Path_18" data-name="Path 18" d="M19,20H95.552v5.889H19Z" transform="translate(349.332 246.026)" fill="#5a6470"/>
    <path id="Path_19" data-name="Path 19" d="M37.833,23.666A8.833,8.833,0,1,0,29,14.833a8.833,8.833,0,0,0,8.833,8.833Zm0-11.777a2.944,2.944,0,1,1-2.944,2.944A2.944,2.944,0,0,1,37.833,11.889Z" transform="translate(368.775 218.805)"/>
    <path id="Path_20" data-name="Path 20" d="M7,40.295V175.733a2.944,2.944,0,0,0,2.944,2.944H151.271a2.944,2.944,0,0,0,2.944-2.944V40.295a2.944,2.944,0,0,0-2.944-2.944H107.107V34.406a2.944,2.944,0,0,0-2.944-2.944H99.216a20.61,20.61,0,1,0-37.216,0H57.053a2.944,2.944,0,0,0-2.944,2.944V37.35H9.944A2.944,2.944,0,0,0,7,40.295ZM148.327,172.789H136.55V43.239h11.777ZM60,37.35h7.47a2.944,2.944,0,0,0,2.191-4.911,14.722,14.722,0,1,1,21.9,0,2.944,2.944,0,0,0,2.191,4.911h7.47v5.889H60Zm-5.889,5.889v2.944a2.944,2.944,0,0,0,2.944,2.944h47.109a2.944,2.944,0,0,0,2.944-2.944V43.239h23.554v129.55H30.554V43.239Zm-41.22,0H24.666v129.55H12.889Z" transform="translate(326 211.01)"/>
    <path id="Path_21" data-name="Path 21" d="M19,44H48.443v5.889H19Z" transform="translate(349.332 292.689)"/>
    <path id="Path_22" data-name="Path 22" d="M19,48H36.666v5.889H19Z" transform="translate(349.332 300.467)"/>
    <path id="Path_23" data-name="Path 23" d="M31,44H72.22v5.889H31Z" transform="translate(372.663 292.689)"/>
    <path id="Path_24" data-name="Path 24" d="M19,52H69.053v5.889H19Z" transform="translate(349.332 308.244)"/>
    <path id="Path_25" data-name="Path 25" d="M27,48H80v5.889H27Z" transform="translate(364.886 300.467)"/>
    <path id="Path_26" data-name="Path 26" d="M38,52H58.61v5.889H38Z" transform="translate(386.274 308.244)"/>
    <path id="Path_27" data-name="Path 27" d="M19,56H95.552v5.889H19Z" transform="translate(349.332 316.021)"/>
    <path id="Path_28" data-name="Path 28" d="M31.722,61.22A14.739,14.739,0,0,0,46.443,46.5V40.61a5.215,5.215,0,0,0-.645-1.84L35.493,25.889H58.22V55.332H55.276a2.944,2.944,0,0,0-2.944,2.944v8.833h-26.5a2.944,2.944,0,0,0-2.944,2.944V81.831a2.944,2.944,0,0,0,2.944,2.944H96.5a2.944,2.944,0,0,0,2.944-2.944V70.053A2.944,2.944,0,0,0,96.5,67.109H70V58.276a2.944,2.944,0,0,0-2.944-2.944H64.109V25.889H86.836L76.531,38.77a5.214,5.214,0,0,0-.645,1.84V46.5a14.722,14.722,0,0,0,29.443,0V40.61a5.214,5.214,0,0,0-.645-1.84L94.379,25.889h5.061V20H22.889v5.889H27.95L17.645,38.77A5.214,5.214,0,0,0,17,40.61V46.5A14.739,14.739,0,0,0,31.722,61.22ZM93.552,78.886H28.777V73H93.552ZM58.22,67.109V61.22h5.889v5.889ZM90.608,30.6l5.65,7.066h-11.3Zm8.833,15.9a8.833,8.833,0,1,1-17.666,0V43.554H99.441Zm-58.886,0a8.833,8.833,0,1,1-17.666,0V43.554H40.554ZM26.071,37.666l5.65-7.066,5.65,7.066Z" transform="translate(345.443 246.026)"/>
  </g>
</svg>
