<svg xmlns="http://www.w3.org/2000/svg" width="539.279" height="86.88" viewBox="0 0 539.279 86.88">
  <g id="Group_8" data-name="Group 8" transform="translate(-775.221 -156.62)">
    <path id="Path_114" data-name="Path 114" d="M2.86-58.52c0,22,23.65,24.97,23.65,40.81,0,5.5-2.42,7.48-6.27,7.48s-6.27-1.98-6.27-7.48v-5.5H2.53v4.73C2.53-6.16,8.69.88,20.57.88S38.61-6.16,38.61-18.48c0-22-23.65-24.97-23.65-40.81,0-5.5,2.2-7.59,6.05-7.59s6.05,2.09,6.05,7.59v3.19H38.5v-2.42c0-12.32-6.05-19.36-17.82-19.36S2.86-70.84,2.86-58.52ZM72.49-28.71v11c0,5.5-2.42,7.48-6.27,7.48s-6.27-1.98-6.27-7.48V-59.29c0-5.5,2.42-7.59,6.27-7.59s6.27,2.09,6.27,7.59v8.25H83.93v-7.48c0-12.32-6.16-19.36-18.04-19.36S47.85-70.84,47.85-58.52v40.04C47.85-6.16,54.01.88,65.89.88S83.93-6.16,83.93-18.48V-28.71ZM106.7-33h13.75V0h12.32V-77H120.45v33H106.7V-77H94.6V0h12.1Zm50.27-33h20.9V-77h-33V0h33V-11h-20.9V-33.55h16.61v-11H156.97ZM188.65,0h19.14c12.1,0,18.04-6.71,18.04-19.03V-57.97c0-12.32-5.94-19.03-18.04-19.03H188.65Zm18.92-66c3.85,0,6.16,1.98,6.16,7.48v40.04c0,5.5-2.31,7.48-6.16,7.48h-6.82V-66Zm28.71-11v58.63c0,12.32,6.16,19.36,18.04,19.36s18.04-7.04,18.04-19.36V-77H260.92v59.4c0,5.5-2.42,7.48-6.27,7.48s-6.27-1.98-6.27-7.48V-77ZM283.91,0h32.01V-11H296.01V-77h-12.1ZM336.6-66h20.9V-77h-33V0h33V-11H336.6V-33.55h16.61v-11H336.6Z" transform="translate(842 241)" fill="#7988e4"/>
    <path id="Path_113" data-name="Path 113" d="M2.86-58.52c0,22,23.65,24.97,23.65,40.81,0,5.5-2.42,7.48-6.27,7.48s-6.27-1.98-6.27-7.48v-5.5H2.53v4.73C2.53-6.16,8.69.88,20.57.88S38.61-6.16,38.61-18.48c0-22-23.65-24.97-23.65-40.81,0-5.5,2.2-7.59,6.05-7.59s6.05,2.09,6.05,7.59v3.19H38.5v-2.42c0-12.32-6.05-19.36-17.82-19.36S2.86-70.84,2.86-58.52ZM72.49-28.71v11c0,5.5-2.42,7.48-6.27,7.48s-6.27-1.98-6.27-7.48V-59.29c0-5.5,2.42-7.59,6.27-7.59s6.27,2.09,6.27,7.59v8.25H83.93v-7.48c0-12.32-6.16-19.36-18.04-19.36S47.85-70.84,47.85-58.52v40.04C47.85-6.16,54.01.88,65.89.88S83.93-6.16,83.93-18.48V-28.71ZM106.7-33h13.75V0h12.32V-77H120.45v33H106.7V-77H94.6V0h12.1Zm50.27-33h20.9V-77h-33V0h33V-11h-20.9V-33.55h16.61v-11H156.97ZM188.65,0h19.14c12.1,0,18.04-6.71,18.04-19.03V-57.97c0-12.32-5.94-19.03-18.04-19.03H188.65Zm18.92-66c3.85,0,6.16,1.98,6.16,7.48v40.04c0,5.5-2.31,7.48-6.16,7.48h-6.82V-66Zm28.71-11v58.63c0,12.32,6.16,19.36,18.04,19.36s18.04-7.04,18.04-19.36V-77H260.92v59.4c0,5.5-2.42,7.48-6.27,7.48s-6.27-1.98-6.27-7.48V-77ZM283.91,0h32.01V-11H296.01V-77h-12.1ZM336.6-66h20.9V-77h-33V0h33V-11H336.6V-33.55h16.61v-11H336.6Z" transform="translate(836 236)" fill="#ef034f" stroke="#fff" stroke-width="3"/>
    <path id="Path_34" data-name="Path 34" d="M104.774,104.774" transform="translate(670.447 138.726)" fill="none" stroke="#fff" stroke-width="1"/>
    <path id="Path_112" data-name="Path 112" d="M0,0,23,23" transform="translate(838.5 214.5)" fill="none" stroke="#fff" stroke-width="1"/>
    <path id="Path_111" data-name="Path 111" d="M0,0,10,10" transform="translate(861.5 222.5)" fill="none" stroke="#fff" stroke-width="1"/>
    <path id="Path_110" data-name="Path 110" d="M0,0,37,37" transform="translate(838.5 183.5)" fill="none" stroke="#fff" stroke-width="1"/>
    <path id="Path_109" data-name="Path 109" d="M0,0,14,14" transform="translate(839.5 169.5)" fill="none" stroke="#fff" stroke-width="1"/>
    <path id="Path_108" data-name="Path 108" d="M0,0,22,22" transform="translate(883.5 213.5)" fill="none" stroke="#fff" stroke-width="1"/>
    <path id="Path_107" data-name="Path 107" d="M0,0,10,10" transform="translate(846.5 160.5)" fill="none" stroke="#fff" stroke-width="1"/>
    <path id="Path_106" data-name="Path 106" d="M0,0,13,13" transform="translate(883.5 197.5)" fill="none" stroke="#fff" stroke-width="1"/>
    <path id="Path_105" data-name="Path 105" d="M0,0,8,8" transform="translate(907.5 221.5)" fill="none" stroke="#fff" stroke-width="1"/>
    <path id="Path_104" data-name="Path 104" d="M0,0,17,17" transform="translate(858.5 157.5)" fill="none" stroke="#fff" stroke-width="1"/>
    <path id="Path_103" data-name="Path 103" d="M0,0,11,11" transform="translate(883.5 182.5)" fill="none" stroke="#fff" stroke-width="1"/>
    <path id="Path_102" data-name="Path 102" d="M0,0,12,12" transform="translate(907.5 206.5)" fill="none" stroke="#fff" stroke-width="1"/>
    <path id="Path_101" data-name="Path 101" d="M0,0,6,6" transform="translate(930.5 229.5)" fill="none" stroke="#fff" stroke-width="1"/>
    <path id="Path_100" data-name="Path 100" d="M0,0,11,11" transform="translate(884.5 167.5)" fill="none" stroke="#fff" stroke-width="1"/>
    <path id="Path_99" data-name="Path 99" d="M0,0,13,13" transform="translate(929.5 212.5)" fill="none" stroke="#fff" stroke-width="1"/>
    <path id="Path_98" data-name="Path 98" d="M0,0,10,10" transform="translate(892.5 160.5)" fill="none" stroke="#fff" stroke-width="1"/>
    <path id="Path_97" data-name="Path 97" d="M0,0,8,8" transform="translate(908.5 176.5)" fill="none" stroke="#fff" stroke-width="1"/>
    <path id="Path_96" data-name="Path 96" d="M0,0,20,20" transform="translate(899.5 157.5)" fill="none" stroke="#fff" stroke-width="1"/>
    <path id="Path_95" data-name="Path 95" d="M0,0,39,39" transform="translate(930.5 178.5)" fill="none" stroke="#fff" stroke-width="1"/>
    <path id="Path_94" data-name="Path 94" d="M0,0,7,7" transform="translate(980.5 228.5)" fill="none" stroke="#fff" stroke-width="1"/>
    <path id="Path_93" data-name="Path 93" d="M0,0,16,16" transform="translate(929.5 187.5)" fill="none" stroke="#fff" stroke-width="1"/>
    <path id="Path_92" data-name="Path 92" d="M0,0,12,12" transform="translate(956.5 214.5)" fill="none" stroke="#fff" stroke-width="1"/>
    <path id="Path_91" data-name="Path 91" d="M0,0,12,12" transform="translate(930.5 198.5)" fill="none" stroke="#fff" stroke-width="1"/>
    <path id="Path_90" data-name="Path 90" d="M0,0,11,11" transform="translate(956.5 224.5)" fill="none" stroke="#fff" stroke-width="1"/>
    <path id="Path_89" data-name="Path 89" d="M0,0,4,4" transform="translate(980.5 232.5)" fill="none" stroke="#fff" stroke-width="1"/>
    <path id="Path_88" data-name="Path 88" d="M0,0,13,13" transform="translate(929.5 166.5)" fill="none" stroke="#fff" stroke-width="1"/>
    <path id="Path_87" data-name="Path 87" d="M0,0,14,14" transform="translate(954.5 191.5)" fill="none" stroke="#fff" stroke-width="1"/>
    <path id="Path_86" data-name="Path 86" d="M0,0,18,18" transform="translate(980.5 217.5)" fill="none" stroke="#fff" stroke-width="1"/>
    <path id="Path_85" data-name="Path 85" d="M0,0,13,13" transform="translate(956.5 178.5)" fill="none" stroke="#fff" stroke-width="1"/>
    <path id="Path_84" data-name="Path 84" d="M0,0,7,7" transform="translate(936.5 158.5)" fill="none" stroke="#fff" stroke-width="1"/>
    <path id="Path_83" data-name="Path 83" d="M0,0,12,12" transform="translate(980.5 202.5)" fill="none" stroke="#fff" stroke-width="1"/>
    <path id="Path_82" data-name="Path 82" d="M0,0,10,10" transform="translate(1002.5 224.5)" fill="none" stroke="#fff" stroke-width="1"/>
    <path id="Path_81" data-name="Path 81" d="M0,0,12,12" transform="translate(956.5 162.5)" fill="none" stroke="#fff" stroke-width="1"/>
    <path id="Path_80" data-name="Path 80" d="M0,0,15,15" transform="translate(980.5 186.5)" fill="none" stroke="#fff" stroke-width="1"/>
    <path id="Path_79" data-name="Path 79" d="M0,0,5,5" transform="translate(1024.5 230.5)" fill="none" stroke="#fff" stroke-width="1"/>
    <path id="Path_78" data-name="Path 78" d="M0,0,12,12" transform="translate(980.5 173.5)" fill="none" stroke="#fff" stroke-width="1"/>
    <path id="Path_77" data-name="Path 77" d="M0,0,10,10" transform="translate(998.5 191.5)" fill="none" stroke="#fff" stroke-width="1"/>
    <path id="Path_76" data-name="Path 76" d="M0,0,18,18" transform="translate(1024.5 217.5)" fill="none" stroke="#fff" stroke-width="1"/>
    <path id="Path_75" data-name="Path 75" d="M0,0,12,12" transform="translate(982.5 158.5)" fill="none" stroke="#fff" stroke-width="1"/>
    <path id="Path_74" data-name="Path 74" d="M0,0,13,13" transform="translate(1024.5 200.5)" fill="none" stroke="#fff" stroke-width="1"/>
    <path id="Path_73" data-name="Path 73" d="M0,0,9,9" transform="translate(1047.5 223.5)" fill="none" stroke="#fff" stroke-width="1"/>
    <path id="Path_72" data-name="Path 72" d="M0,0,12,11" transform="translate(998.5 158.5)" fill="none" stroke="#fff" stroke-width="1"/>
    <path id="Path_71" data-name="Path 71" d="M0,0,13,13" transform="translate(1023.5 183.5)" fill="none" stroke="#fff" stroke-width="1"/>
    <path id="Path_70" data-name="Path 70" d="M0,0,12,12" transform="translate(1049.5 209.5)" fill="none" stroke="#fff" stroke-width="1"/>
    <path id="Path_69" data-name="Path 69" d="M0,0,12,12" transform="translate(1024.5 169.5)" fill="none" stroke="#fff" stroke-width="1"/>
    <path id="Path_68" data-name="Path 68" d="M0,0,12,12" transform="translate(1049.5 194.5)" fill="none" stroke="#fff" stroke-width="1"/>
    <path id="Path_67" data-name="Path 67" d="M0,0,20,20" transform="translate(1071.5 216.5)" fill="none" stroke="#fff" stroke-width="1"/>
    <path id="Path_66" data-name="Path 66" d="M0,0,11,11" transform="translate(1029.5 158.5)" fill="none" stroke="#fff" stroke-width="1"/>
    <path id="Path_65" data-name="Path 65" d="M0,0,11,11" transform="translate(1029.5 158.5)" fill="none" stroke="#fff" stroke-width="1"/>
    <path id="Path_64" data-name="Path 64" d="M0,0,13,13" transform="translate(1049.5 178.5)" fill="none" stroke="#fff" stroke-width="1"/>
    <path id="Path_63" data-name="Path 63" d="M0,0,12,12" transform="translate(1071.5 200.5)" fill="none" stroke="#fff" stroke-width="1"/>
    <path id="Path_62" data-name="Path 62" d="M0,0,8,8" transform="translate(1095.5 224.5)" fill="none" stroke="#fff" stroke-width="1"/>
    <path id="Path_61" data-name="Path 61" d="M0,0,18,18" transform="translate(1044.5 158.5)" fill="none" stroke="#fff" stroke-width="1"/>
    <path id="Path_60" data-name="Path 60" d="M0,0,11,11" transform="translate(1072.5 186.5)" fill="none" stroke="#fff" stroke-width="1"/>
    <path id="Path_59" data-name="Path 59" d="M0,0,11,11" transform="translate(1096.5 210.5)" fill="none" stroke="#fff" stroke-width="1"/>
    <path id="Path_58" data-name="Path 58" d="M0,0,12,12" transform="translate(1072.5 170.5)" fill="none" stroke="#fff" stroke-width="1"/>
    <path id="Path_57" data-name="Path 57" d="M0,0,13,13" transform="translate(1096.5 194.5)" fill="none" stroke="#fff" stroke-width="1"/>
    <path id="Path_56" data-name="Path 56" d="M0,0,19,19" transform="translate(1119.5 217.5)" fill="none" stroke="#fff" stroke-width="1"/>
    <path id="Path_55" data-name="Path 55" d="M0,0,9,9" transform="translate(1075.5 158.5)" fill="none" stroke="#fff" stroke-width="1"/>
    <path id="Path_54" data-name="Path 54" d="M0,0,13,13" transform="translate(1096.5 179.5)" fill="none" stroke="#fff" stroke-width="1"/>
    <path id="Path_53" data-name="Path 53" d="M0,0,11,11" transform="translate(1141.5 224.5)" fill="none" stroke="#fff" stroke-width="1"/>
    <path id="Path_52" data-name="Path 52" d="M0,0,13,13" transform="translate(1119.5 202.5)" fill="none" stroke="#fff" stroke-width="1"/>
    <path id="Path_51" data-name="Path 51" d="M0,0,11,11" transform="translate(1097.5 165.5)" fill="none" stroke="#fff" stroke-width="1"/>
    <path id="Path_50" data-name="Path 50" d="M0,0,14,14" transform="translate(1118.5 186.5)" fill="none" stroke="#fff" stroke-width="1"/>
    <path id="Path_49" data-name="Path 49" d="M0,0,8,8" transform="translate(1159.5 227.5)" fill="none" stroke="#fff" stroke-width="1"/>
    <path id="Path_48" data-name="Path 48" d="M0,0,13,13" transform="translate(1119.5 171.5)" fill="none" stroke="#fff" stroke-width="1"/>
    <path id="Path_47" data-name="Path 47" d="M0,0,13,13" transform="translate(1119.5 171.5)" fill="none" stroke="#fff" stroke-width="1"/>
    <path id="Path_46" data-name="Path 46" d="M0,0,13,13" transform="translate(1159.5 211.5)" fill="none" stroke="#fff" stroke-width="1"/>
    <path id="Path_45" data-name="Path 45" d="M0,0,10,10" transform="translate(1173.5 225.5)" fill="none" stroke="#fff" stroke-width="1"/>
    <path id="Path_44" data-name="Path 44" d="M0,0,11,11" transform="translate(1121.5 158.5)" fill="none" stroke="#fff" stroke-width="1"/>
    <path id="Path_43" data-name="Path 43" d="M0,0,13,13" transform="translate(1159.5 196.5)" fill="none" stroke="#fff" stroke-width="1"/>
    <path id="Path_42" data-name="Path 42" d="M0,0,22,22" transform="translate(1159.5 180.5)" fill="none" stroke="#fff" stroke-width="1"/>
    <path id="Path_41" data-name="Path 41" d="M0,0,14,14" transform="translate(1159.5 165.5)" fill="none" stroke="#fff" stroke-width="1"/>
    <path id="Path_40" data-name="Path 40" d="M0,0,14,14" transform="translate(1159.5 165.5)" fill="none" stroke="#fff" stroke-width="1"/>
    <path id="Path_39" data-name="Path 39" d="M0,0,12,12" transform="translate(1172.5 158.5)" fill="none" stroke="#fff" stroke-width="1"/>
    <path id="Path_35" data-name="Path 35" d="M104.774,104.774" transform="translate(1163.502 138.726)" fill="none" stroke="#fff" stroke-width="1"/>
    <path id="Path_36" data-name="Path 36" d="M104.774,104.774" transform="translate(1178.91 138.726)" fill="none" stroke="#fff" stroke-width="1"/>
    <path id="Path_37" data-name="Path 37" d="M104.774,104.774" transform="translate(1194.318 138.726)" fill="none" stroke="#fff" stroke-width="1"/>
    <path id="Path_38" data-name="Path 38" d="M104.774,104.774" transform="translate(1209.726 138.726)" fill="none" stroke="#fff" stroke-width="1"/>
  </g>
</svg>
