<svg width="313" height="186" xmlns="http://www.w3.org/2000/svg"><path d="M284.4 156.95v-42.006c0-23.579-18.86-43.18-42.437-43.295-23.686-.117-42.982 19.177-42.865 42.864.117 23.578 19.717 42.437 43.295 42.437H284.4zM241.749 43.214c39.258 0 71.084 31.825 71.084 71.085v71.084h-71.084c-39.26 0-71.085-31.825-71.085-71.084 0-39.26 31.825-71.085 71.085-71.085zM128.013 185.383h28.433V43.213h-28.433zM156.447 14.78c0 7.852-6.366 14.217-14.218 14.217-7.85 0-14.216-6.365-14.216-14.217S134.378.563 142.23.563s14.218 6.365 14.218 14.217M19.975 141.326c5.15 5.8 11.473 10.586 18.966 14.358 7.494 3.775 14.73 5.684 21.713 5.735 7.518.057 13.707-1.708 18.564-5.297 4.86-3.587 7.303-7.423 7.33-11.514.031-4.272-1.423-7.72-4.358-10.347-2.936-2.62-7.088-4.416-12.45-5.388l-15.824-3.183c-17.522-3.476-29.66-8.255-36.421-14.348C10.731 105.256 7.389 97.1 7.46 86.878c.083-12.077 4.76-22.405 14.042-30.976C30.78 47.33 43.207 43.1 58.782 43.216c9.13.068 17.8 1.622 26.015 4.654 8.212 3.035 16.684 7.837 25.413 14.404l-8.178 10.35-7.806 9.88c-6.23-5.622-12.285-9.569-18.179-11.842-5.892-2.274-11.433-3.43-16.624-3.47-6.445-.047-12.053 1.446-16.816 4.477-4.766 3.03-7.164 7.15-7.2 12.35-.051 7.434 5.555 12.215 16.818 14.34l28.157 5.785c22.881 4.63 34.258 16.7 34.124 36.212-.036 5.204-1.146 10.444-3.332 15.724-2.184 5.28-5.531 10.18-10.035 14.7-4.51 4.523-10.307 8.104-17.396 10.74-7.091 2.641-15.29 3.93-24.596 3.86-21.126-.157-40.587-8.196-58.376-24.126l19.204-19.928z" fill="#1ED660" fill-rule="evenodd"/></svg>