<svg xmlns="http://www.w3.org/2000/svg" width="1918.629" height="727.565" viewBox="0 0 1918.629 727.565">
  <path id="path151" d="M2056.5,2307.663l8.515.191v-10.415l-8.515.309.126-8.313-8.049-.155V2268.3l-5.055-.383-.4-5.8-13.444-3.094.519-5.749,7.471.155.193-3.867,5.062-1.734,1.171-4.837,4.684-1.344-3.705-35.561s17.149-19.913,16.556-19.913-10.331-12.364-10.331-12.364l-9.545,7.732-10.517-20.235h-9.353l-6.751-8.952,5.469-5.984.578-9.085,9.938-1.361-9.152-2.7,9.152-5.411-11.888-.388,6.826-7.925-11.109,5.61-.971-10.049-4.677,9.467-3.12-.191-6.626-5.41,3.305,9.467-7.018-.963V2120.4l-1.668-.89-.667-25.7-4.388-6.065.1-1.278,7.989-.185v-7.159l-1.949-2.514-5.855-.39-.57-2.087,6.426-.8v-5.8l-2.142-3.359-.2-2.83-2.335-2.7,3.342-6.954v-5.034l-13.481,17.515v7.219l2.342,2.741.586,1.705h-2.342l-2.342,3.095v7.725l3.513,1.934.03,8.939h4.469v9l-7.218,32.621v12.966l4.128,3.41v14.333l3.5,7.424-3.5,19.178v7.5h3.973l.675,3.594-.511,15.51h3.1l.118,17.09-3.216,12.246v35.8l-6.715-.14v9.49l-9.45-.11,2.1,11.451,7.974-.043-9.012,16.714s-4.209-30.21-38.864-48.953a99.357,99.357,0,0,0-9.435-4.441c-15.786-19.265-45.683-15.693-45.683-15.693v-15.42l-6.262,1.9c-1.86-6.571-5.255-10.063-8.264-11.93V2123.123h-39v79.547h-2.675v33.377l-1.52,1.514h-10.524V1929.976l-49.448-.61v247.709a39.473,39.473,0,0,0-12.821,4.138v-225.2l-36.33-36.023-43.637,35.465.548,193.477a37.052,37.052,0,0,0-17.224,1.913v-364.9l-24.4-.28-.43-5.006,19.047.147,5.781-2.654v-4.168l-4.632-3.756-20.61-.419-3.365-141.421-3.564,141.458h-21.67l-4.632,3.3.423,5.006,5.047,2.513h20.833v4.007h-28.051v350.776l-10.354-8.8-16.8,18.751v22.911h-5.254v54.15h-5.254v24.293h-11.243V2120.4h-11.865v-38.729h-22.8V2120.4h-2.972v34.826h-35.589v5.748c-4.847-.059-7.937-.11-7.937-.11v1.948h-3.12V2137.2h-6.477v-12.071h-45v59.135h-16.431v47.578h-8.182v-8.621h-13.9v-5.682h-6.552v-8.116h-8.182v22.418H1347.8v-41.669l-11.554-69.776-11.561,69.776v39.59l-3.973.984V2105.429h-60.187v25.278h-8.619v50.645h-2.661l-4.365-20.485-5.61,20.485h-15.186v-46.587h-11.458v9.73H1179.9v-7.3h-15.541v10.556H1152.9v-8.116h-12.265v42.213c-6.018.235-12.74.375-14.407-.11.926,3.227-.385,25.69-.385,25.69h-9.071v27.534h-7.359v-43.742l-8.39-15.627-8.412,18.752V2225.6h-6.218V2110.648h-43.245v18.435h-4.795v39.523H1022.8v-55.753H995.223v-44.831h-35.07v22.118H926.247v87.535h-3.231v35.943l-3.179,3.154V1941.993h-6.425v-45.206h-6.426v-19.125h-6.433v-7.535h-7.011V1859.69l-5.847,1.162v-5.211l-3.506-.581s-.326-44.058,0-52.165c.363-9.085-9.249-9.952-9.249-9.952v-23.088h-2.92v22.889c-11.25.418-11.791,8.99-11.791,8.99v57.958h-8.76v9.277h-7.011v9.276l-7.018.581v16.222l-5.262.581v45.785h-3.506V2171.87l-5.4,4.271v4.689c-.319-.007-.541-.014-.541-.014v13.2h-7.6V2064.18H779.313v139.576h-1.534l-16.809-16.67V2073.911H750.335v-9.731h-28v-65.566H697.5v135.329h-23.19V2019.607H644.2v174.411h-7.6v-10.555l-12.354.587v-14.693h-.734v-9.424H612.057v-8.114h-3.676V2074.5H566.863v70.828h-8.137V2074.5H521.47v58.649H509.775v24.058l-4.195-2.433-5.255,6.093v9.518l-5.247,1.052v52h-8.241V2058.66l-3.543-3.521v-18.11l-7.122-7.057V1988.5l-9.99-9.518v-12.951l-1.534-1.9v-10.658l-2.683-2.293v-13.7l-3.839-.763v-13.7l-1.534-1.147v-8.746l-2.3-1.911v-8l-3.068-6.469-.1-61.728v1.139l-1.445,60.589h-1.92v11.408l-5.566,11.812v10.092l-5.951,5.9V1948.9h-3.935v13.988l-2.779,2.764v11.232l-2.112,2.094v11.79h-2.268v40.464h-5.692v10.35h-6.64v174.63h-8.049v-9.38h-4.632v-86.447H324.991V2229.9c-5.87.359-11.591.316-11.591-1.2v16.414l-3.276,3.241v-54.37h-21.27v56.577H278.219V2180.2H228.3v96.2H215.624v-49.55H166.377v129.1L2085,2354.735c.37-37.517-28.5-47.072-28.5-47.072" transform="translate(-166.377 -1628.382)"/>
</svg>
