<svg width="178" height="26" xmlns="http://www.w3.org/2000/svg"><g fill="none" fill-rule="evenodd"><path d="M32.135 19.126c-.213-.213-.33-.331-.118-.71l.85-1.469a.546.546 0 01.803-.165c.118.07 2.032 1.468 3.567 1.468 1.228 0 2.15-.805 2.15-1.824 0-1.208-1.017-2.037-3-2.842-2.22-.9-4.44-2.32-4.44-5.116 0-2.107 1.558-4.547 5.313-4.547 2.41 0 4.252 1.232 4.724 1.587.236.142.307.545.142.781l-.898 1.35c-.189.285-.543.474-.826.285-.19-.119-1.984-1.303-3.283-1.303-1.347 0-2.079.9-2.079 1.658 0 1.113.874 1.871 2.787 2.653 2.291.923 4.937 2.297 4.937 5.352 0 2.44-2.102 4.69-5.433 4.69-2.976 0-4.724-1.398-5.196-1.848zm12.47-6.655c0-4.737 3.756-8.55 8.48-8.55s8.503 3.813 8.503 8.55c0 3.221-1.866 6.063-4.606 7.579l2.953 4.666c.212.331 0 .71-.378.71h-2.504c-.094 0-.307-.094-.378-.237l-2.527-4.286c-.378.047-.78.07-1.063.07-4.724 0-8.48-3.765-8.48-8.502zm3.071 0c0 2.984 2.433 5.424 5.41 5.424 2.975 0 5.432-2.44 5.432-5.424C58.518 9.487 56.06 7 53.085 7s-5.409 2.487-5.409 5.471zm16.794 1.99V4.608c0-.237.212-.45.448-.45h2.244a.45.45 0 01.449.45v9.687c0 2.013 1.37 3.6 3.425 3.6 2.054 0 3.448-1.587 3.448-3.577v-9.71a.45.45 0 01.449-.45h2.244c.236 0 .448.213.448.45v9.853c0 3.6-2.858 6.513-6.59 6.513-3.708 0-6.565-2.913-6.565-6.513zm15.47 6.276c-.354 0-.543-.308-.402-.616l7.346-15.94c.07-.142.189-.26.402-.26h.236c.236 0 .33.118.401.26l7.275 15.94c.142.308-.047.616-.402.616h-2.054c-.355 0-.52-.142-.685-.474l-1.158-2.558h-7.062l-1.157 2.558c-.095.237-.307.474-.685.474H79.94zm5.054-5.66h4.748L87.38 9.865h-.07l-2.316 5.21zm12.353 5.21V4.607a.45.45 0 01.449-.45h6.755c2.834 0 5.149 2.275 5.149 5.093 0 2.179-1.44 3.955-3.496 4.784l3.236 6.016c.166.308 0 .687-.401.687h-2.48a.405.405 0 01-.378-.213l-3.142-6.277h-2.621v6.04c0 .237-.213.45-.45.45h-2.172a.45.45 0 01-.449-.45zm3.094-8.574h3.85c1.252 0 2.339-1.09 2.339-2.416 0-1.255-1.087-2.297-2.339-2.297h-3.85v4.713zm12.637 8.574V4.607a.45.45 0 01.448-.45h9.613a.45.45 0 01.449.45V6.55a.45.45 0 01-.449.45h-6.991v3.884h5.834c.236 0 .449.213.449.45V13.3a.45.45 0 01-.45.45h-5.833v4.145h6.991a.45.45 0 01.449.45v1.942a.45.45 0 01-.449.45h-9.613a.45.45 0 01-.448-.45z" fill="#3964DF"/><path d="M127.43 20.377V4.49c0-.24.189-.456.448-.456h2.165c.236 0 .448.216.448.456v13.464h6.002c.259 0 .447.216.447.456v1.968c0 .24-.188.456-.447.456h-8.615a.451.451 0 01-.447-.456zm11.887 0V4.49c0-.24.212-.456.448-.456h2.189c.235 0 .447.216.447.456v15.888c0 .24-.212.456-.447.456h-2.19a.468.468 0 01-.447-.456zm7.368 0V4.225c0-.24.212-.432.447-.432h.589l9.792 10.608h.023V4.49c0-.24.189-.456.447-.456h2.166c.235 0 .447.216.447.456v16.152c0 .24-.212.432-.447.432h-.565l-9.839-11.016h-.024v10.32c0 .24-.188.456-.447.456h-2.142a.468.468 0 01-.447-.456zm18.195-.12V4.61c0-.312.236-.576.565-.576h2.072c.306 0 .564.264.564.576v6.48l5.932-6.816c.094-.12.236-.24.447-.24h2.354c.447 0 .683.504.377.864l-6.144 7.056 6.591 8.04c.235.312.047.84-.424.84h-2.565c-.236 0-.377-.096-.424-.168l-6.144-7.728v7.32a.578.578 0 01-.564.576h-2.072a.563.563 0 01-.565-.576z" fill="#819CEA"/><path d="M0 .976h18a5 5 0 015 5v13.048a5 5 0 01-5 5H5a5 5 0 01-5-5V.976zm3.245 2.902v15.229a2 2 0 002 2h12.53a2 2 0 002-2V5.878a2 2 0 00-2-2H3.246zm3.495 0h3.224V15.51a2 2 0 01-2 2h-4.72V14.7H6.74V3.877zm0 0h3.224H6.74zM3.245 17.51V14.7v2.81zm13.035 3.597h-3.224V9.475a2 2 0 012-2h4.72v2.81H16.28v10.822zm3.496-13.632v2.81-2.81zM16.28 21.107h-3.224 3.224z" fill="#3964DF"/></g></svg>