<svg version="1.1" id="Layer_1" xmlns="http://www.w3.org/2000/svg" x="0" y="0" viewBox="0 0 432 432" xml:space="preserve"><style>.st0{fill:#ec57de}</style><path class="st0" d="M60.6 189.89v27.01l19.01 7.75.02-26.86 57.47-56.84-19.07-7.95-57.43 56.89zm2.39 25.41v-23.11l14.25 5.97-.02 22.95-14.23-5.81zm69.88-73.52l-54.75 54.15-14.21-5.95 54.67-54.16 14.29 5.96zm-34.02 63.93l-19.24 18.95 19.12 8.03.12-26.98zm-2.49 23.39l-12.51-5.25 12.59-12.4-.08 17.65z"/><path class="st0" d="M137.02 194.75l18.19-17.95.02.01.02-.05.93-.92.03-26.86-19.12-8.02-.08 26.94-19.13 18.92-.04 80.63-19.19 18.88 19.12 8.05L137 275.35v-80.6zm16.82-44.19l-.03 23.06-14.39-6.03.07-23.05 14.35 6.02zm-36.59 140.99l-14.35-6.04 16.43-16.17 14.31 5.99-16.39 16.22zm3-24.42l.04-78.02 14.35 6.01v78.04l-14.39-6.03zm15.26-74.24l-14.3-5.99 17.29-17.1 14.33 6-17.32 17.09z"/><path d="M189.14 186.79h11.88v11.98h6.01v5.95h-6.01v23.88c0 1.96.64 3.45 1.93 4.48 1.29 1.03 2.46 1.54 3.51 1.54h.57v5.95h-6.01c-3.25 0-6.04-1.17-8.37-3.51-2.34-2.34-3.51-5.16-3.51-8.46v-23.88h-6.01v-5.95h6.01v-11.98zm59.77 29.89v-6.03c0-1.63-.59-3.03-1.76-4.2-1.17-1.17-2.59-1.76-4.27-1.76h-5.95c-3.54 0-5.52 1.99-5.95 5.96h-6.02c.96-7.94 4.95-11.91 11.98-11.91h11.98c3.25 0 6.05 1.17 8.39 3.52 2.34 2.34 3.51 5.14 3.51 8.4v29.92h-11.91v-5.96c-.48 3.97-2.49 5.96-6.02 5.96h-5.95c-3.25 0-6.06-1.17-8.43-3.52-2.37-2.34-3.55-5.17-3.55-8.47 0-3.25 1.18-6.05 3.55-8.4 2.37-2.34 5.17-3.52 8.43-3.52h11.97zm0 5.96h-6.02c-1.63 0-3.02.59-4.2 1.76-1.17 1.17-1.76 2.57-1.76 4.2 0 1.63.59 3.04 1.76 4.23 1.17 1.2 2.57 1.79 4.2 1.79 1.67 0 3.1-.6 4.27-1.79 1.17-1.2 1.76-2.61 1.76-4.23v-5.96zm29.84 17.94v-8.97c0-3.54 1-6.3 3.01-8.29 2.01-1.98 5-3.22 8.96-3.7-3.97-.43-6.96-1.65-8.96-3.66-2.01-2.01-3.01-4.76-3.01-8.25v-8.97h11.98v11.91c0 1.68.59 3.1 1.76 4.27 1.17 1.17 2.57 1.76 4.2 1.76 1.67 0 3.1-.59 4.27-1.76 1.17-1.17 1.76-2.59 1.76-4.27v-11.91h11.91v8.97c0 3.49-.99 6.24-2.98 8.25-1.98 2.01-4.96 3.23-8.93 3.66 3.97.48 6.94 1.72 8.93 3.73 1.98 2.01 2.98 4.76 2.98 8.25v8.97H302.7V228.6c0-1.63-.59-3.03-1.76-4.2-1.17-1.17-2.59-1.76-4.27-1.76-1.63 0-3.02.59-4.2 1.76-1.17 1.17-1.76 2.57-1.76 4.2v11.98h-11.96zm77.74-23.9v-6.03c0-1.63-.59-3.03-1.76-4.2-1.17-1.17-2.59-1.76-4.27-1.76h-5.95c-3.54 0-5.52 1.99-5.95 5.96h-6.02c.96-7.94 4.95-11.91 11.98-11.91h11.98c3.25 0 6.05 1.17 8.39 3.52 2.34 2.34 3.51 5.14 3.51 8.4v29.92h-11.91v-5.96c-.48 3.97-2.49 5.96-6.02 5.96h-5.95c-3.25 0-6.06-1.17-8.43-3.52-2.37-2.34-3.55-5.17-3.55-8.47 0-3.25 1.18-6.05 3.55-8.4 2.37-2.34 5.17-3.52 8.43-3.52h11.97zm0 5.96h-6.02c-1.63 0-3.02.59-4.2 1.76-1.17 1.17-1.76 2.57-1.76 4.2 0 1.63.59 3.04 1.76 4.23 1.17 1.2 2.57 1.79 4.2 1.79 1.67 0 3.1-.6 4.27-1.79 1.17-1.2 1.76-2.61 1.76-4.23v-5.96z" fill="#1b3059"/></svg>