<svg xmlns="http://www.w3.org/2000/svg" viewBox="0 0 313.44 72"><defs><style>.a{fill:#3996ff}</style></defs><path class="a" d="M139.31 36a42.64 42.64 0 01-2.44 14.81A33 33 0 01130 62.17a30.51 30.51 0 01-10.63 7.27 37.7 37.7 0 01-27.31 0 30.52 30.52 0 01-10.61-7.27 33 33 0 01-6.87-11.36A42.64 42.64 0 0172.14 36a42.48 42.48 0 012.44-14.76 33 33 0 016.87-11.36 30.84 30.84 0 0110.61-7.29A34.83 34.83 0 01105.7 0a35.41 35.41 0 0113.67 2.56A30.32 30.32 0 01130 9.86a33.19 33.19 0 016.87 11.38A42.48 42.48 0 01139.31 36zM134 36a40.28 40.28 0 00-2-13.25 28.3 28.3 0 00-5.78-9.95 24.83 24.83 0 00-9-6.25 31.69 31.69 0 00-23 0 25.12 25.12 0 00-9 6.25 28.39 28.39 0 00-5.83 10A40 40 0 0077.32 36a39.88 39.88 0 002.06 13.27 28.39 28.39 0 005.83 9.93 24.82 24.82 0 009 6.23 32.1 32.1 0 0023 0 24.54 24.54 0 009-6.23 28.3 28.3 0 005.79-9.93A40.15 40.15 0 00134 36zm64.43 36H194a3.32 3.32 0 01-1.45-.28 2.87 2.87 0 01-1.09-1l-23.1-29.21a7.42 7.42 0 00-.84-1 3.24 3.24 0 00-1-.63 4.36 4.36 0 00-1.27-.33 13 13 0 00-1.81-.11H154V72h-5.24V0h18.42q12.41 0 18.6 4.81T192 18.93a19.32 19.32 0 01-1.43 7.53 17.66 17.66 0 01-4.09 6 21.6 21.6 0 01-6.46 4.2 30.73 30.73 0 01-8.53 2.18 8.1 8.1 0 012.19 2zm-32-36.43a29.38 29.38 0 008.57-1.15 18.31 18.31 0 006.41-3.28 14.17 14.17 0 004-5.14 16.18 16.18 0 001.37-6.77q0-7.68-5-11.39t-14.59-3.72H154v31.45zm67.37 31.9a22.54 22.54 0 009.2-1.78 19.78 19.78 0 006.86-4.95 21.73 21.73 0 004.3-7.47 28.21 28.21 0 001.46-9.27V0h5.13v44a31.82 31.82 0 01-1.86 11 26.28 26.28 0 01-5.36 8.9 24.73 24.73 0 01-8.49 6 30.32 30.32 0 01-22.48 0 24.63 24.63 0 01-8.49-6 26.12 26.12 0 01-5.36-8.9 31.82 31.82 0 01-1.86-11V0H212v43.94a28.21 28.21 0 001.48 9.28 22 22 0 004.28 7.47 19.65 19.65 0 006.83 5 22.22 22.22 0 009.21 1.78zm76.46-58.12a1.4 1.4 0 01-1.29.85 2.87 2.87 0 01-1.67-.92 22.53 22.53 0 00-2.76-2 20.93 20.93 0 00-4.36-2.06 21.82 21.82 0 00-13.18.1 14.11 14.11 0 00-4.88 3 12.68 12.68 0 00-3 4.38 13.64 13.64 0 00-1 5.22 10.66 10.66 0 001.51 5.92 13.74 13.74 0 004 4 26.27 26.27 0 005.65 2.76c2.1.74 4.27 1.48 6.49 2.21s4.39 1.54 6.49 2.41a23.65 23.65 0 015.65 3.31 15.32 15.32 0 014 4.9 15.59 15.59 0 011.51 7.24 22.86 22.86 0 01-1.49 8.33 19.49 19.49 0 01-4.41 6.79 20.71 20.71 0 01-7.06 4.55A25.68 25.68 0 01290.9 72a27 27 0 01-12-2.46 28.26 28.26 0 01-8.8-6.75l1.39-2.18a1.75 1.75 0 011.39-.75 2 2 0 011.15.6l1.69 1.46c.66.59 1.46 1.22 2.39 1.9a19.23 19.23 0 003.23 1.89 22.4 22.4 0 009.66 2.06 20.53 20.53 0 007.47-1.27A16.25 16.25 0 00304 63a14.66 14.66 0 003.45-5.2 17.19 17.19 0 001.2-6.44 11.39 11.39 0 00-1.52-6.15 13.17 13.17 0 00-4-4 26.1 26.1 0 00-5.64-2.71c-2.11-.73-4.27-1.44-6.5-2.14s-4.38-1.47-6.49-2.34a22.36 22.36 0 01-5.65-3.3 15.14 15.14 0 01-4-5 16.57 16.57 0 01-1.52-7.54 18 18 0 011.34-6.82 17.1 17.1 0 013.93-5.79 19.26 19.26 0 016.4-4A23.29 23.29 0 01293.69 0a26.33 26.33 0 019.83 1.74 23.45 23.45 0 017.93 5.33zM0 0h39.99v21.71H0z"/><path class="a" d="M18.28.03h21.71V72H18.28z"/><circle class="a" cx="56.22" cy="10.85" r="10.85"/></svg>