<svg id="Layer_1" data-name="Layer 1" xmlns="http://www.w3.org/2000/svg" viewBox="0 0 432 108"><defs><style>.cls-1{fill:#ff4a4a}</style></defs><path class="cls-1" d="M276.66 108h-18.21a6.2 6.2 0 01-6.2-6.19V53.66l-32 20a8.24 8.24 0 01-8.78 0l-32-20v48.15a6.2 6.2 0 01-6.2 6.19h-18.14a6.19 6.19 0 01-6.19-6.19V9a8.26 8.26 0 0112.92-6.8l50.54 34.63a6.21 6.21 0 007 0L269.93 2.2A8.26 8.26 0 01282.85 9v92.8a6.19 6.19 0 01-6.19 6.2zm-155.03-.19H8.26A8.26 8.26 0 010 99.55V6.19A6.19 6.19 0 016.19 0h18.22a6.19 6.19 0 016.19 6.19v71h68.69v-71A6.19 6.19 0 01105.48 0h18.21a6.2 6.2 0 016.2 6.19v93.36a8.26 8.26 0 01-8.26 8.26zM310.16 0h113.37a8.26 8.26 0 018.26 8.26v93.35a6.19 6.19 0 01-6.19 6.2h-18.22a6.19 6.19 0 01-6.19-6.2V34.73a4.13 4.13 0 00-4.13-4.13h-60.42a4.12 4.12 0 00-4.13 4.13v66.88a6.2 6.2 0 01-6.2 6.2H308.1a6.19 6.19 0 01-6.19-6.2V8.26A8.25 8.25 0 01310.16 0z"/><rect class="cls-1" x="351.56" y="50.23" width="30.58" height="30.89" rx="6.19"/></svg>