<svg xmlns="http://www.w3.org/2000/svg" width="232.589" height="84.49" viewBox="0 0 232.589 84.49">
  <g id="Group_30" data-name="Group 30" transform="translate(-1490.461 -484.5)">
    <path id="Path_198" data-name="Path 198" d="M13.42-77H1.21L13.09,0H31.13L43.01-77H31.9L22.66-14.19Zm50.6,11h20.9V-77h-33V0h33V-11H64.02V-33.55H80.63v-11H64.02ZM121.55,0h12.43V-77H123.2v46.09L110.77-77H95.59V0h10.89V-55.77Zm23.87-77v58.63c0,12.32,6.16,19.36,18.04,19.36S181.5-6.05,181.5-18.37V-77H170.06v59.4c0,5.5-2.42,7.48-6.27,7.48s-6.27-1.98-6.27-7.48V-77Zm59.73,11h20.9V-77h-33V0h33V-11h-20.9V-33.55h16.61v-11H205.15Z" transform="translate(1497 568)" fill="#7988e4"/>
    <path id="Path_199" data-name="Path 199" d="M13.42-77H1.21L13.09,0H31.13L43.01-77H31.9L22.66-14.19Zm50.6,11h20.9V-77h-33V0h33V-11H64.02V-33.55H80.63v-11H64.02ZM121.55,0h12.43V-77H123.2v46.09L110.77-77H95.59V0h10.89V-55.77Zm23.87-77v58.63c0,12.32,6.16,19.36,18.04,19.36S181.5-6.05,181.5-18.37V-77H170.06v59.4c0,5.5-2.42,7.48-6.27,7.48s-6.27-1.98-6.27-7.48V-77Zm59.73,11h20.9V-77h-33V0h33V-11h-20.9V-33.55h16.61v-11H205.15Z" transform="translate(1491 563)" fill="#ef034f" stroke="#fff" stroke-width="3"/>
    <path id="Path_200" data-name="Path 200" d="M0,0,17,17" transform="translate(1500.5 546.5)" fill="none" stroke="#fff" stroke-width="1" opacity="0.58"/>
    <path id="Path_201" data-name="Path 201" d="M0,0,28,28" transform="translate(1496.5 522.5)" fill="none" stroke="#fff" stroke-width="1" opacity="0.58"/>
    <path id="Path_202" data-name="Path 202" d="M0,0,16,16" transform="translate(1493.5 499.5)" fill="none" stroke="#fff" stroke-width="1" opacity="0.58"/>
    <path id="Path_203" data-name="Path 203" d="M0,0,10,10" transform="translate(1516.5 522.5)" fill="none" stroke="#fff" stroke-width="1" opacity="0.58"/>
    <path id="Path_204" data-name="Path 204" d="M0,0,15,15" transform="translate(1542.5 548.5)" fill="none" stroke="#fff" stroke-width="1" opacity="0.58"/>
    <path id="Path_205" data-name="Path 205" d="M0,0,7,7" transform="translate(1499.5 485.5)" fill="none" stroke="#fff" stroke-width="1" opacity="0.58"/>
    <path id="Path_206" data-name="Path 206" d="M0,0,10,10" transform="translate(1519.5 505.5)" fill="none" stroke="#fff" stroke-width="1" opacity="0.58"/>
    <path id="Path_207" data-name="Path 207" d="M0,0,12,12" transform="translate(1542.5 528.5)" fill="none" stroke="#fff" stroke-width="1" opacity="0.58"/>
    <path id="Path_208" data-name="Path 208" d="M0,0,9,9" transform="translate(1566.5 552.5)" fill="none" stroke="#fff" stroke-width="1" opacity="0.58"/>
    <path id="Path_209" data-name="Path 209" d="M0,0,11,11" transform="translate(1521.5 487.5)" fill="none" stroke="#fff" stroke-width="1" opacity="0.58"/>
    <path id="Path_210" data-name="Path 210" d="M0,0,21,21" transform="translate(1542.5 508.5)" fill="none" stroke="#fff" stroke-width="1" opacity="0.58"/>
    <path id="Path_211" data-name="Path 211" d="M0,0,12,12" transform="translate(1585.5 551.5)" fill="none" stroke="#fff" stroke-width="1" opacity="0.58"/>
    <path id="Path_212" data-name="Path 212" d="M0,0,12,12" transform="translate(1542.5 488.5)" fill="none" stroke="#fff" stroke-width="1" opacity="0.58"/>
    <path id="Path_213" data-name="Path 213" d="M0,0,12,12" transform="translate(1585.5 531.5)" fill="none" stroke="#fff" stroke-width="1" opacity="0.58"/>
    <path id="Path_214" data-name="Path 214" d="M0,0,6,6" transform="translate(1611.5 557.5)" fill="none" stroke="#fff" stroke-width="1" opacity="0.58"/>
    <path id="Path_215" data-name="Path 215" d="M0,0,11,11" transform="translate(1560.5 486.5)" fill="none" stroke="#fff" stroke-width="1" opacity="0.58"/>
    <path id="Path_216" data-name="Path 216" d="M0,0,11,11" transform="translate(1585.5 511.5)" fill="none" stroke="#fff" stroke-width="1" opacity="0.58"/>
    <path id="Path_217" data-name="Path 217" d="M0,0,22,22" transform="translate(1602.5 528.5)" fill="none" stroke="#fff" stroke-width="1" opacity="0.58"/>
    <path id="Path_218" data-name="Path 218" d="M0,0,23,23" transform="translate(1585.5 491.5)" fill="none" stroke="#fff" stroke-width="1" opacity="0.58"/>
    <path id="Path_219" data-name="Path 219" d="M0,0,11,11" transform="translate(1614.5 520.5)" fill="none" stroke="#fff" stroke-width="1" opacity="0.58"/>
    <path id="Path_220" data-name="Path 220" d="M0,0,21,21" transform="translate(1636.5 542.5)" fill="none" stroke="#fff" stroke-width="1" opacity="0.58"/>
    <path id="Path_221" data-name="Path 221" d="M0,0,11,11" transform="translate(1613.5 499.5)" fill="none" stroke="#fff" stroke-width="1" opacity="0.58"/>
    <path id="Path_222" data-name="Path 222" d="M0,0,13,13" transform="translate(1636.5 522.5)" fill="none" stroke="#fff" stroke-width="1" opacity="0.58"/>
    <path id="Path_223" data-name="Path 223" d="M0,0,10,10" transform="translate(1660.5 546.5)" fill="none" stroke="#fff" stroke-width="1" opacity="0.58"/>
    <path id="Path_224" data-name="Path 224" d="M0,0,5,5" transform="translate(1620.5 486.5)" fill="none" stroke="#fff" stroke-width="1" opacity="0.58"/>
    <path id="Path_225" data-name="Path 225" d="M0,0,13,13" transform="translate(1635.5 501.5)" fill="none" stroke="#fff" stroke-width="1" opacity="0.58"/>
    <path id="Path_226" data-name="Path 226" d="M0,0,13,13" transform="translate(1660.5 526.5)" fill="none" stroke="#fff" stroke-width="1" opacity="0.58"/>
    <path id="Path_227" data-name="Path 227" d="M0,0,14,14" transform="translate(1683.5 549.5)" fill="none" stroke="#fff" stroke-width="1" opacity="0.58"/>
    <path id="Path_228" data-name="Path 228" d="M0,0,10,10" transform="translate(1639.5 485.5)" fill="none" stroke="#fff" stroke-width="1" opacity="0.58"/>
    <path id="Path_229" data-name="Path 229" d="M0,0,13,13" transform="translate(1660.5 506.5)" fill="none" stroke="#fff" stroke-width="1" opacity="0.58"/>
    <path id="Path_230" data-name="Path 230" d="M0,0,12,12" transform="translate(1683.5 529.5)" fill="none" stroke="#fff" stroke-width="1" opacity="0.58"/>
    <path id="Path_231" data-name="Path 231" d="M0,0,10,10" transform="translate(1705.5 551.5)" fill="none" stroke="#fff" stroke-width="1" opacity="0.58"/>
    <path id="Path_232" data-name="Path 232" d="M0,0,13,13" transform="translate(1660.5 486.5)" fill="none" stroke="#fff" stroke-width="1" opacity="0.58"/>
    <path id="Path_233" data-name="Path 233" d="M0,0,20,20" transform="translate(1683.5 509.5)" fill="none" stroke="#fff" stroke-width="1" opacity="0.58"/>
    <path id="Path_234" data-name="Path 234" d="M0,0,12,12" transform="translate(1683.5 489.5)" fill="none" stroke="#fff" stroke-width="1" opacity="0.58"/>
    <path id="Path_235" data-name="Path 235" d="M0,0,12,12" transform="translate(1699.5 485.5)" fill="none" stroke="#fff" stroke-width="1" opacity="0.58"/>
  </g>
</svg>
